<?xml version="1.0" encoding="UTF-8" standalone="no"?>
<!DOCTYPE svg PUBLIC "-//W3C//DTD SVG 1.1//EN" "http://www.w3.org/Graphics/SVG/1.1/DTD/svg11.dtd">
<svg width="100%" height="100%" viewBox="0 0 909 300" version="1.1" xmlns="http://www.w3.org/2000/svg" xmlns:xlink="http://www.w3.org/1999/xlink" xml:space="preserve" xmlns:serif="http://www.serif.com/" style="fill-rule:evenodd;clip-rule:evenodd;stroke-miterlimit:10;">
    <g transform="matrix(1,0,0,1,-220.959,-581.285)">
        <g transform="matrix(1,0,0,1,220.959,581.285)">
            <rect x="-12.881" y="-18.511" width="934.316" height="335.141" style="fill:white;"/>
        </g>
        <g>
            <g transform="matrix(1,0,0,1,291.097,531.206)">
                <g transform="matrix(25,0,0,25,47.2733,126.735)">
                    <path d="M-0.064,-0L0.363,-0.714L0.468,-0.714L0.593,-0L-0.064,-0ZM0.081,-0.08L0.475,-0.08L0.398,-0.629L0.396,-0.629L0.081,-0.08Z" style="fill-rule:nonzero;"/>
                </g>
                <g transform="matrix(25,0,0,25,63.4733,126.735)">
                    <path d="M0.24,-0.634L0.24,-0L0.335,-0L0.335,-0.634L0.573,-0.634L0.573,-0.714L0.002,-0.714L0.002,-0.634L0.24,-0.634Z" style="fill-rule:nonzero;"/>
                </g>
                <g transform="matrix(25,0,0,25,77.8233,126.735)">
                    <path d="M0.154,-0.61L0.154,-0.714L0.069,-0.714L0.069,-0.61L0.154,-0.61ZM0.069,-0.517L0.069,-0L0.154,-0L0.154,-0.517L0.069,-0.517Z" style="fill-rule:nonzero;"/>
                </g>
                <g transform="matrix(25,0,0,25,83.3733,126.735)">
                    <path d="M0.064,-0.517L0.064,-0L0.149,-0L0.149,-0.322C0.149,-0.332 0.152,-0.345 0.157,-0.36C0.162,-0.375 0.169,-0.389 0.181,-0.403C0.192,-0.417 0.206,-0.429 0.224,-0.439C0.241,-0.449 0.262,-0.454 0.287,-0.454C0.306,-0.454 0.322,-0.451 0.335,-0.446C0.347,-0.44 0.357,-0.432 0.364,-0.422C0.371,-0.411 0.377,-0.399 0.38,-0.385C0.383,-0.371 0.384,-0.356 0.384,-0.339L0.384,-0L0.469,-0L0.469,-0.322C0.469,-0.362 0.481,-0.394 0.505,-0.418C0.529,-0.442 0.562,-0.454 0.604,-0.454C0.625,-0.454 0.642,-0.451 0.655,-0.445C0.668,-0.439 0.678,-0.431 0.685,-0.421C0.692,-0.41 0.697,-0.398 0.7,-0.384C0.703,-0.37 0.704,-0.355 0.704,-0.339L0.704,-0L0.789,-0L0.789,-0.379C0.789,-0.406 0.785,-0.428 0.777,-0.448C0.768,-0.467 0.756,-0.482 0.742,-0.494C0.727,-0.506 0.708,-0.515 0.688,-0.521C0.667,-0.526 0.643,-0.529 0.617,-0.529C0.583,-0.529 0.552,-0.521 0.524,-0.506C0.495,-0.491 0.472,-0.469 0.455,-0.441C0.444,-0.473 0.426,-0.496 0.4,-0.509C0.374,-0.522 0.345,-0.529 0.313,-0.529C0.24,-0.529 0.185,-0.5 0.146,-0.441L0.144,-0.441L0.144,-0.517L0.064,-0.517Z" style="fill-rule:nonzero;"/>
                </g>
                <g transform="matrix(25,0,0,25,104.698,126.735)">
                    <path d="M0.423,-0.308L0.126,-0.308C0.127,-0.328 0.132,-0.347 0.139,-0.365C0.146,-0.382 0.156,-0.398 0.169,-0.411C0.182,-0.424 0.197,-0.435 0.215,-0.443C0.232,-0.45 0.252,-0.454 0.274,-0.454C0.295,-0.454 0.315,-0.45 0.333,-0.443C0.35,-0.435 0.366,-0.425 0.379,-0.412C0.392,-0.399 0.402,-0.383 0.41,-0.365C0.417,-0.347 0.422,-0.328 0.423,-0.308ZM0.505,-0.164L0.421,-0.164C0.414,-0.13 0.399,-0.105 0.376,-0.088C0.353,-0.071 0.323,-0.063 0.287,-0.063C0.259,-0.063 0.235,-0.068 0.214,-0.077C0.193,-0.086 0.176,-0.099 0.163,-0.115C0.15,-0.13 0.14,-0.148 0.134,-0.169C0.128,-0.189 0.125,-0.21 0.126,-0.233L0.513,-0.233C0.514,-0.264 0.511,-0.297 0.505,-0.332C0.498,-0.367 0.485,-0.399 0.467,-0.428C0.448,-0.457 0.424,-0.482 0.394,-0.501C0.363,-0.52 0.325,-0.529 0.279,-0.529C0.244,-0.529 0.211,-0.522 0.182,-0.509C0.152,-0.496 0.126,-0.477 0.105,-0.453C0.083,-0.429 0.066,-0.401 0.054,-0.368C0.042,-0.335 0.036,-0.299 0.036,-0.26C0.037,-0.221 0.043,-0.184 0.054,-0.151C0.064,-0.118 0.079,-0.089 0.1,-0.065C0.121,-0.041 0.146,-0.022 0.177,-0.009C0.207,0.004 0.243,0.011 0.284,0.011C0.343,0.011 0.391,-0.004 0.43,-0.033C0.469,-0.062 0.494,-0.106 0.505,-0.164Z" style="fill-rule:nonzero;"/>
                </g>
            </g>
            <g transform="matrix(1,0,0,1,466.553,563.125)">
                <g transform="matrix(25,0,0,25,55.1608,126.735)">
                    <path d="M0.58,-0.499L0.675,-0.499C0.67,-0.537 0.658,-0.571 0.641,-0.6C0.624,-0.628 0.602,-0.653 0.576,-0.672C0.55,-0.691 0.52,-0.706 0.487,-0.716C0.454,-0.726 0.418,-0.731 0.381,-0.731C0.326,-0.731 0.278,-0.721 0.236,-0.702C0.193,-0.682 0.158,-0.655 0.13,-0.621C0.101,-0.587 0.08,-0.547 0.065,-0.502C0.05,-0.456 0.043,-0.407 0.043,-0.355C0.043,-0.303 0.05,-0.254 0.064,-0.209C0.077,-0.164 0.098,-0.124 0.125,-0.091C0.152,-0.058 0.187,-0.032 0.228,-0.013C0.269,0.007 0.318,0.016 0.373,0.016C0.464,0.016 0.536,-0.009 0.589,-0.059C0.642,-0.109 0.673,-0.179 0.682,-0.269L0.587,-0.269C0.585,-0.24 0.579,-0.212 0.569,-0.187C0.559,-0.162 0.545,-0.14 0.528,-0.122C0.51,-0.103 0.489,-0.089 0.465,-0.079C0.44,-0.068 0.412,-0.063 0.381,-0.063C0.338,-0.063 0.302,-0.071 0.271,-0.087C0.24,-0.103 0.215,-0.125 0.196,-0.152C0.176,-0.179 0.161,-0.21 0.152,-0.247C0.143,-0.283 0.138,-0.321 0.138,-0.362C0.138,-0.399 0.143,-0.435 0.152,-0.47C0.161,-0.505 0.176,-0.536 0.196,-0.563C0.215,-0.59 0.24,-0.611 0.271,-0.627C0.301,-0.643 0.337,-0.651 0.38,-0.651C0.43,-0.651 0.473,-0.638 0.51,-0.613C0.546,-0.588 0.569,-0.55 0.58,-0.499Z" style="fill-rule:nonzero;"/>
                </g>
                <g transform="matrix(25,0,0,25,73.2108,126.735)">
                    <path d="M0.423,-0.308L0.126,-0.308C0.127,-0.328 0.132,-0.347 0.139,-0.365C0.146,-0.382 0.156,-0.398 0.169,-0.411C0.182,-0.424 0.197,-0.435 0.215,-0.443C0.232,-0.45 0.252,-0.454 0.274,-0.454C0.295,-0.454 0.315,-0.45 0.333,-0.443C0.35,-0.435 0.366,-0.425 0.379,-0.412C0.392,-0.399 0.402,-0.383 0.41,-0.365C0.417,-0.347 0.422,-0.328 0.423,-0.308ZM0.505,-0.164L0.421,-0.164C0.414,-0.13 0.399,-0.105 0.376,-0.088C0.353,-0.071 0.323,-0.063 0.287,-0.063C0.259,-0.063 0.235,-0.068 0.214,-0.077C0.193,-0.086 0.176,-0.099 0.163,-0.115C0.15,-0.13 0.14,-0.148 0.134,-0.169C0.128,-0.189 0.125,-0.21 0.126,-0.233L0.513,-0.233C0.514,-0.264 0.511,-0.297 0.505,-0.332C0.498,-0.367 0.485,-0.399 0.467,-0.428C0.448,-0.457 0.424,-0.482 0.394,-0.501C0.363,-0.52 0.325,-0.529 0.279,-0.529C0.244,-0.529 0.211,-0.522 0.182,-0.509C0.152,-0.496 0.126,-0.477 0.105,-0.453C0.083,-0.429 0.066,-0.401 0.054,-0.368C0.042,-0.335 0.036,-0.299 0.036,-0.26C0.037,-0.221 0.043,-0.184 0.054,-0.151C0.064,-0.118 0.079,-0.089 0.1,-0.065C0.121,-0.041 0.146,-0.022 0.177,-0.009C0.207,0.004 0.243,0.011 0.284,0.011C0.343,0.011 0.391,-0.004 0.43,-0.033C0.469,-0.062 0.494,-0.106 0.505,-0.164Z" style="fill-rule:nonzero;"/>
                </g>
                <g transform="matrix(25,0,0,25,86.6358,126.735)">
                    <rect x="0.069" y="-0.714" width="0.085" height="0.714"/>
                </g>
                <g transform="matrix(25,0,0,25,92.1858,126.735)">
                    <rect x="0.069" y="-0.714" width="0.085" height="0.714"/>
                </g>
                <g transform="matrix(25,0,0,25,97.7358,126.735)">
                    <path d="M0.116,-0.163L0.031,-0.163C0.032,-0.131 0.039,-0.104 0.051,-0.082C0.063,-0.059 0.079,-0.041 0.099,-0.028C0.119,-0.014 0.142,-0.004 0.168,0.002C0.194,0.008 0.221,0.011 0.25,0.011C0.276,0.011 0.302,0.008 0.329,0.004C0.355,-0.002 0.379,-0.01 0.4,-0.023C0.421,-0.036 0.438,-0.052 0.451,-0.073C0.464,-0.094 0.47,-0.12 0.47,-0.151C0.47,-0.176 0.465,-0.196 0.456,-0.213C0.446,-0.23 0.433,-0.244 0.418,-0.255C0.402,-0.266 0.384,-0.274 0.364,-0.281C0.343,-0.288 0.322,-0.293 0.301,-0.298C0.281,-0.303 0.261,-0.307 0.241,-0.312C0.221,-0.316 0.203,-0.321 0.187,-0.328C0.171,-0.334 0.158,-0.342 0.148,-0.352C0.137,-0.361 0.132,-0.373 0.132,-0.388C0.132,-0.401 0.135,-0.412 0.142,-0.421C0.149,-0.429 0.157,-0.436 0.168,-0.441C0.179,-0.446 0.191,-0.449 0.204,-0.451C0.217,-0.453 0.229,-0.454 0.242,-0.454C0.256,-0.454 0.27,-0.452 0.284,-0.45C0.297,-0.447 0.31,-0.442 0.321,-0.435C0.332,-0.428 0.342,-0.42 0.349,-0.409C0.356,-0.398 0.361,-0.384 0.362,-0.367L0.447,-0.367C0.445,-0.398 0.438,-0.425 0.427,-0.446C0.416,-0.467 0.401,-0.483 0.382,-0.496C0.363,-0.508 0.341,-0.517 0.316,-0.522C0.291,-0.527 0.264,-0.529 0.235,-0.529C0.212,-0.529 0.19,-0.526 0.167,-0.521C0.143,-0.515 0.123,-0.506 0.105,-0.495C0.086,-0.483 0.071,-0.468 0.06,-0.449C0.048,-0.43 0.042,-0.408 0.042,-0.382C0.042,-0.349 0.05,-0.323 0.067,-0.304C0.084,-0.285 0.105,-0.271 0.13,-0.261C0.155,-0.25 0.182,-0.242 0.211,-0.237C0.24,-0.231 0.268,-0.225 0.293,-0.218C0.318,-0.211 0.338,-0.201 0.355,-0.19C0.372,-0.179 0.38,-0.162 0.38,-0.14C0.38,-0.124 0.376,-0.111 0.368,-0.101C0.36,-0.09 0.35,-0.082 0.338,-0.077C0.325,-0.072 0.312,-0.068 0.297,-0.066C0.282,-0.064 0.268,-0.063 0.255,-0.063C0.238,-0.063 0.221,-0.065 0.205,-0.068C0.188,-0.071 0.173,-0.077 0.161,-0.085C0.148,-0.092 0.137,-0.102 0.129,-0.116C0.121,-0.129 0.117,-0.144 0.116,-0.163Z" style="fill-rule:nonzero;"/>
                </g>
            </g>
            <g>
                <g>
                    <g transform="matrix(-0.610915,-3.74078e-17,-3.74078e-17,0.610915,496.055,630.819)">
                        <path d="M86.5,149C78.492,149 72,155.492 72,163.5C72,171.508 78.492,178 86.5,178C94.508,178 101,171.508 101,163.5C101,155.492 94.508,149 86.5,149" style="fill:rgb(102,194,165);fill-rule:nonzero;stroke:white;stroke-width:6.82px;"/>
                    </g>
                    <g transform="matrix(-0.610915,-3.74078e-17,-3.74078e-17,0.610915,526.744,642.446)">
                        <path d="M86.5,149C78.492,149 72,155.492 72,163.5C72,171.508 78.492,178 86.5,178C94.508,178 101,171.508 101,163.5C101,155.492 94.508,149 86.5,149" style="fill:rgb(102,194,165);fill-rule:nonzero;stroke:white;stroke-width:6.82px;"/>
                    </g>
                    <g transform="matrix(-0.610915,-3.74078e-17,-3.74078e-17,0.610915,534.331,625.781)">
                        <path d="M86.5,149C78.492,149 72,155.492 72,163.5C72,171.508 78.492,178 86.5,178C94.508,178 101,171.508 101,163.5C101,155.492 94.508,149 86.5,149" style="fill:rgb(102,194,165);fill-rule:nonzero;stroke:white;stroke-width:6.82px;"/>
                    </g>
                    <g transform="matrix(-0.610915,-3.74078e-17,-3.74078e-17,0.610915,508.538,644.338)">
                        <path d="M86.5,149C78.492,149 72,155.492 72,163.5C72,171.508 78.492,178 86.5,178C94.508,178 101,171.508 101,163.5C101,155.492 94.508,149 86.5,149" style="fill:rgb(102,194,165);fill-rule:nonzero;stroke:white;stroke-width:6.82px;"/>
                    </g>
                    <g transform="matrix(-0.610915,-3.74078e-17,-3.74078e-17,0.610915,513.693,627.32)">
                        <path d="M86.5,149C78.492,149 72,155.492 72,163.5C72,171.508 78.492,178 86.5,178C94.508,178 101,171.508 101,163.5C101,155.492 94.508,149 86.5,149" style="fill:rgb(102,194,165);fill-rule:nonzero;stroke:white;stroke-width:6.82px;"/>
                    </g>
                </g>
                <g transform="matrix(-0.610915,-3.74078e-17,-3.74078e-17,0.610915,338.21,635.06)">
                    <path d="M86.5,149C78.492,149 72,155.492 72,163.5C72,171.508 78.492,178 86.5,178C94.508,178 101,171.508 101,163.5C101,155.492 94.508,149 86.5,149" style="fill:rgb(102,194,165);fill-rule:nonzero;stroke:white;stroke-width:6.82px;"/>
                </g>
                <g transform="matrix(1,0,0,1,131.254,33.6117)">
                    <g transform="matrix(1.26714,7.75902e-17,7.75902e-17,-1.26714,125.722,963.517)">
                        <path d="M67.758,206.91L105.242,206.91" style="fill:none;fill-rule:nonzero;stroke:black;stroke-width:3.29px;"/>
                    </g>
                    <g transform="matrix(7.75902e-17,-1.26714,1.26714,7.75902e-17,27.6415,810.94)">
                        <path d="M90,178.039L86.5,188.039L83,178.039L90,178.039Z" style="fill-rule:nonzero;stroke:black;stroke-width:3.29px;"/>
                    </g>
                </g>
            </g>
            <g>
                <g>
                    <g transform="matrix(-0.610915,-3.74078e-17,-3.74078e-17,0.610915,511.679,575.726)">
                        <path d="M86.5,149C78.492,149 72,155.492 72,163.5C72,171.508 78.492,178 86.5,178C94.508,178 101,171.508 101,163.5C101,155.492 94.508,149 86.5,149" style="fill:rgb(102,194,165);fill-rule:nonzero;stroke:white;stroke-width:6.82px;"/>
                    </g>
                    <g transform="matrix(-0.610915,-3.74078e-17,-3.74078e-17,0.610915,501.472,591.212)">
                        <path d="M86.5,149C78.492,149 72,155.492 72,163.5C72,171.508 78.492,178 86.5,178C94.508,178 101,171.508 101,163.5C101,155.492 94.508,149 86.5,149" style="fill:rgb(102,194,165);fill-rule:nonzero;stroke:white;stroke-width:6.82px;"/>
                    </g>
                    <g transform="matrix(-0.610915,-3.74078e-17,-3.74078e-17,0.610915,528.913,589.07)">
                        <path d="M86.5,149C78.492,149 72,155.492 72,163.5C72,171.508 78.492,178 86.5,178C94.508,178 101,171.508 101,163.5C101,155.492 94.508,149 86.5,149" style="fill:rgb(102,194,165);fill-rule:nonzero;stroke:white;stroke-width:6.82px;"/>
                    </g>
                </g>
                <g transform="matrix(-0.610915,-3.74078e-17,-3.74078e-17,0.610915,338.21,583.469)">
                    <path d="M86.5,149C78.492,149 72,155.492 72,163.5C72,171.508 78.492,178 86.5,178C94.508,178 101,171.508 101,163.5C101,155.492 94.508,149 86.5,149" style="fill:rgb(102,194,165);fill-rule:nonzero;stroke:white;stroke-width:6.82px;"/>
                </g>
                <g transform="matrix(1,0,0,1,131.254,-17.9787)">
                    <g transform="matrix(1.26714,7.75902e-17,7.75902e-17,-1.26714,125.722,963.517)">
                        <path d="M67.758,206.91L105.242,206.91" style="fill:none;fill-rule:nonzero;stroke:black;stroke-width:3.29px;"/>
                    </g>
                    <g transform="matrix(7.75902e-17,-1.26714,1.26714,7.75902e-17,27.6415,810.94)">
                        <path d="M90,178.039L86.5,188.039L83,178.039L90,178.039Z" style="fill-rule:nonzero;stroke:black;stroke-width:3.29px;"/>
                    </g>
                </g>
            </g>
            <g>
                <g>
                    <g transform="matrix(-0.610915,-3.74078e-17,-3.74078e-17,0.610915,513.278,689.31)">
                        <path d="M86.5,149C78.492,149 72,155.492 72,163.5C72,171.508 78.492,178 86.5,178C94.508,178 101,171.508 101,163.5C101,155.492 94.508,149 86.5,149" style="fill:rgb(102,194,165);fill-rule:nonzero;stroke:white;stroke-width:6.82px;"/>
                    </g>
                    <g transform="matrix(-0.610915,-3.74078e-17,-3.74078e-17,0.610915,498.422,676.955)">
                        <path d="M86.5,149C78.492,149 72,155.492 72,163.5C72,171.508 78.492,178 86.5,178C94.508,178 101,171.508 101,163.5C101,155.492 94.508,149 86.5,149" style="fill:rgb(102,194,165);fill-rule:nonzero;stroke:white;stroke-width:6.82px;"/>
                    </g>
                    <g transform="matrix(-0.610915,-3.74078e-17,-3.74078e-17,0.610915,533.118,690.198)">
                        <path d="M86.5,149C78.492,149 72,155.492 72,163.5C72,171.508 78.492,178 86.5,178C94.508,178 101,171.508 101,163.5C101,155.492 94.508,149 86.5,149" style="fill:rgb(102,194,165);fill-rule:nonzero;stroke:white;stroke-width:6.82px;"/>
                    </g>
                    <g transform="matrix(-0.610915,-3.74078e-17,-3.74078e-17,0.610915,497.267,696.344)">
                        <path d="M86.5,149C78.492,149 72,155.492 72,163.5C72,171.508 78.492,178 86.5,178C94.508,178 101,171.508 101,163.5C101,155.492 94.508,149 86.5,149" style="fill:rgb(102,194,165);fill-rule:nonzero;stroke:white;stroke-width:6.82px;"/>
                    </g>
                </g>
                <g transform="matrix(-0.610915,-3.74078e-17,-3.74078e-17,0.610915,338.21,686.65)">
                    <path d="M86.5,149C78.492,149 72,155.492 72,163.5C72,171.508 78.492,178 86.5,178C94.508,178 101,171.508 101,163.5C101,155.492 94.508,149 86.5,149" style="fill:rgb(102,194,165);fill-rule:nonzero;stroke:white;stroke-width:6.82px;"/>
                </g>
                <g transform="matrix(1,0,0,1,131.254,85.2021)">
                    <g transform="matrix(1.26714,7.75902e-17,7.75902e-17,-1.26714,125.722,963.517)">
                        <path d="M67.758,206.91L105.242,206.91" style="fill:none;fill-rule:nonzero;stroke:black;stroke-width:3.29px;"/>
                    </g>
                    <g transform="matrix(7.75902e-17,-1.26714,1.26714,7.75902e-17,27.6415,810.94)">
                        <path d="M90,178.039L86.5,188.039L83,178.039L90,178.039Z" style="fill-rule:nonzero;stroke:black;stroke-width:3.29px;"/>
                    </g>
                </g>
            </g>
            <g transform="matrix(1,0,0,1,245.571,737.674)">
                <g transform="matrix(25,0,0,25,29.4811,126.735)">
                    <path d="M0.491,-0.505L0.581,-0.505C0.58,-0.544 0.572,-0.578 0.559,-0.607C0.545,-0.635 0.526,-0.658 0.503,-0.677C0.479,-0.696 0.451,-0.709 0.42,-0.718C0.389,-0.727 0.355,-0.731 0.318,-0.731C0.285,-0.731 0.254,-0.727 0.223,-0.719C0.192,-0.71 0.164,-0.697 0.14,-0.681C0.115,-0.664 0.096,-0.642 0.081,-0.616C0.066,-0.589 0.059,-0.558 0.059,-0.522C0.059,-0.489 0.066,-0.462 0.079,-0.441C0.092,-0.419 0.109,-0.401 0.131,-0.388C0.152,-0.374 0.177,-0.363 0.204,-0.355C0.231,-0.346 0.259,-0.339 0.288,-0.333C0.316,-0.326 0.344,-0.32 0.371,-0.314C0.398,-0.308 0.423,-0.3 0.445,-0.291C0.466,-0.281 0.484,-0.268 0.497,-0.253C0.509,-0.238 0.516,-0.218 0.516,-0.193C0.516,-0.167 0.511,-0.146 0.5,-0.129C0.489,-0.112 0.475,-0.099 0.458,-0.09C0.441,-0.08 0.421,-0.073 0.4,-0.069C0.378,-0.065 0.356,-0.063 0.335,-0.063C0.308,-0.063 0.282,-0.066 0.257,-0.073C0.232,-0.08 0.21,-0.09 0.191,-0.104C0.171,-0.118 0.156,-0.136 0.145,-0.158C0.133,-0.179 0.127,-0.205 0.127,-0.235L0.037,-0.235C0.037,-0.192 0.045,-0.154 0.061,-0.123C0.076,-0.091 0.097,-0.065 0.125,-0.045C0.152,-0.024 0.183,-0.009 0.219,0.001C0.254,0.011 0.292,0.016 0.332,0.016C0.365,0.016 0.397,0.012 0.431,0.005C0.463,-0.003 0.493,-0.016 0.52,-0.033C0.547,-0.05 0.569,-0.072 0.586,-0.099C0.603,-0.126 0.611,-0.158 0.611,-0.196C0.611,-0.231 0.604,-0.261 0.592,-0.284C0.579,-0.307 0.561,-0.327 0.54,-0.342C0.518,-0.357 0.493,-0.37 0.466,-0.379C0.439,-0.388 0.411,-0.395 0.383,-0.402C0.354,-0.409 0.326,-0.415 0.299,-0.421C0.272,-0.426 0.247,-0.433 0.226,-0.442C0.204,-0.451 0.187,-0.462 0.174,-0.476C0.161,-0.489 0.154,-0.507 0.154,-0.529C0.154,-0.552 0.159,-0.572 0.168,-0.588C0.177,-0.603 0.189,-0.616 0.204,-0.625C0.219,-0.634 0.236,-0.641 0.255,-0.645C0.274,-0.649 0.294,-0.651 0.314,-0.651C0.363,-0.651 0.404,-0.64 0.436,-0.617C0.467,-0.594 0.486,-0.556 0.491,-0.505Z" style="fill-rule:nonzero;"/>
                </g>
                <g transform="matrix(25,0,0,25,45.6811,126.735)">
                    <path d="M0.182,-0.517L0.182,-0.672L0.097,-0.672L0.097,-0.517L0.009,-0.517L0.009,-0.442L0.097,-0.442L0.097,-0.113C0.097,-0.089 0.099,-0.07 0.104,-0.055C0.109,-0.04 0.116,-0.029 0.126,-0.021C0.135,-0.013 0.148,-0.008 0.164,-0.005C0.179,-0.002 0.198,-0 0.22,-0L0.285,-0L0.285,-0.075L0.246,-0.075C0.233,-0.075 0.222,-0.076 0.214,-0.077C0.205,-0.078 0.199,-0.08 0.194,-0.083C0.189,-0.086 0.186,-0.091 0.185,-0.097C0.183,-0.103 0.182,-0.111 0.182,-0.121L0.182,-0.442L0.285,-0.442L0.285,-0.517L0.182,-0.517Z" style="fill-rule:nonzero;"/>
                </g>
                <g transform="matrix(25,0,0,25,53.5561,126.735)">
                    <path d="M0.126,-0.258C0.126,-0.289 0.13,-0.317 0.139,-0.342C0.147,-0.366 0.158,-0.386 0.173,-0.403C0.188,-0.42 0.205,-0.432 0.225,-0.441C0.244,-0.45 0.265,-0.454 0.287,-0.454C0.309,-0.454 0.33,-0.45 0.35,-0.441C0.369,-0.432 0.386,-0.42 0.401,-0.403C0.416,-0.386 0.427,-0.366 0.436,-0.342C0.444,-0.317 0.448,-0.289 0.448,-0.258C0.448,-0.227 0.444,-0.199 0.436,-0.175C0.427,-0.15 0.416,-0.13 0.401,-0.114C0.386,-0.097 0.369,-0.085 0.35,-0.076C0.33,-0.067 0.309,-0.063 0.287,-0.063C0.265,-0.063 0.244,-0.067 0.225,-0.076C0.205,-0.085 0.188,-0.097 0.173,-0.114C0.158,-0.13 0.147,-0.15 0.139,-0.175C0.13,-0.199 0.126,-0.227 0.126,-0.258ZM0.036,-0.258C0.036,-0.22 0.041,-0.185 0.052,-0.152C0.063,-0.119 0.079,-0.091 0.1,-0.067C0.121,-0.042 0.148,-0.023 0.179,-0.01C0.21,0.004 0.246,0.011 0.287,0.011C0.328,0.011 0.365,0.004 0.396,-0.01C0.427,-0.023 0.453,-0.042 0.474,-0.067C0.495,-0.091 0.511,-0.119 0.522,-0.152C0.533,-0.185 0.538,-0.22 0.538,-0.258C0.538,-0.296 0.533,-0.331 0.522,-0.365C0.511,-0.398 0.495,-0.426 0.474,-0.451C0.453,-0.475 0.427,-0.494 0.396,-0.508C0.365,-0.522 0.328,-0.529 0.287,-0.529C0.246,-0.529 0.21,-0.522 0.179,-0.508C0.148,-0.494 0.121,-0.475 0.1,-0.451C0.079,-0.426 0.063,-0.398 0.052,-0.365C0.041,-0.331 0.036,-0.296 0.036,-0.258Z" style="fill-rule:nonzero;"/>
                </g>
                <g transform="matrix(25,0,0,25,67.9061,126.735)">
                    <path d="M0.415,-0.351L0.503,-0.351C0.5,-0.382 0.492,-0.408 0.479,-0.431C0.466,-0.453 0.45,-0.471 0.431,-0.486C0.411,-0.501 0.388,-0.511 0.363,-0.519C0.337,-0.526 0.309,-0.529 0.28,-0.529C0.239,-0.529 0.204,-0.522 0.173,-0.508C0.142,-0.493 0.117,-0.474 0.097,-0.449C0.076,-0.424 0.061,-0.394 0.051,-0.361C0.041,-0.327 0.036,-0.291 0.036,-0.252C0.036,-0.213 0.041,-0.178 0.052,-0.146C0.062,-0.113 0.077,-0.085 0.098,-0.062C0.118,-0.039 0.143,-0.021 0.174,-0.008C0.204,0.005 0.239,0.011 0.278,0.011C0.344,0.011 0.396,-0.006 0.435,-0.041C0.473,-0.076 0.497,-0.125 0.506,-0.189L0.419,-0.189C0.414,-0.149 0.399,-0.118 0.376,-0.096C0.352,-0.074 0.319,-0.063 0.277,-0.063C0.25,-0.063 0.227,-0.068 0.208,-0.079C0.189,-0.09 0.173,-0.104 0.161,-0.122C0.149,-0.139 0.14,-0.159 0.135,-0.182C0.129,-0.205 0.126,-0.228 0.126,-0.252C0.126,-0.278 0.129,-0.303 0.134,-0.328C0.139,-0.352 0.148,-0.373 0.161,-0.392C0.173,-0.411 0.189,-0.426 0.21,-0.437C0.231,-0.448 0.256,-0.454 0.287,-0.454C0.323,-0.454 0.352,-0.445 0.373,-0.427C0.394,-0.409 0.408,-0.384 0.415,-0.351Z" style="fill-rule:nonzero;"/>
                </g>
                <g transform="matrix(25,0,0,25,81.3311,126.735)">
                    <path d="M0.064,-0.714L0.064,-0L0.149,-0L0.149,-0.292C0.149,-0.315 0.152,-0.337 0.159,-0.357C0.165,-0.376 0.174,-0.393 0.187,-0.408C0.2,-0.423 0.216,-0.434 0.235,-0.442C0.254,-0.45 0.276,-0.454 0.302,-0.454C0.335,-0.454 0.36,-0.445 0.379,-0.426C0.398,-0.407 0.407,-0.382 0.407,-0.35L0.407,-0L0.492,-0L0.492,-0.34C0.492,-0.368 0.489,-0.393 0.484,-0.417C0.478,-0.44 0.468,-0.459 0.454,-0.476C0.44,-0.493 0.422,-0.506 0.399,-0.515C0.376,-0.524 0.348,-0.529 0.314,-0.529C0.299,-0.529 0.283,-0.527 0.267,-0.524C0.25,-0.521 0.235,-0.516 0.22,-0.509C0.205,-0.502 0.191,-0.493 0.179,-0.482C0.167,-0.47 0.158,-0.457 0.151,-0.441L0.149,-0.441L0.149,-0.714L0.064,-0.714Z" style="fill-rule:nonzero;"/>
                </g>
                <g transform="matrix(25,0,0,25,95.2311,126.735)">
                    <path d="M0.522,-0.002C0.507,0.007 0.487,0.011 0.461,0.011C0.439,0.011 0.422,0.005 0.409,-0.008C0.396,-0.02 0.389,-0.04 0.389,-0.068C0.366,-0.04 0.338,-0.02 0.308,-0.008C0.277,0.005 0.243,0.011 0.207,0.011C0.184,0.011 0.162,0.008 0.141,0.003C0.12,-0.002 0.101,-0.011 0.086,-0.022C0.071,-0.033 0.058,-0.048 0.05,-0.067C0.041,-0.085 0.036,-0.107 0.036,-0.133C0.036,-0.162 0.041,-0.186 0.051,-0.205C0.061,-0.224 0.074,-0.239 0.091,-0.251C0.107,-0.262 0.126,-0.271 0.147,-0.277C0.167,-0.283 0.189,-0.288 0.211,-0.292C0.234,-0.297 0.257,-0.3 0.278,-0.303C0.299,-0.305 0.317,-0.308 0.333,-0.313C0.349,-0.317 0.362,-0.323 0.371,-0.332C0.38,-0.34 0.385,-0.352 0.385,-0.368C0.385,-0.387 0.382,-0.402 0.375,-0.413C0.368,-0.424 0.359,-0.433 0.348,-0.439C0.337,-0.445 0.324,-0.449 0.311,-0.451C0.297,-0.453 0.283,-0.454 0.27,-0.454C0.234,-0.454 0.204,-0.447 0.18,-0.434C0.156,-0.42 0.143,-0.394 0.141,-0.356L0.056,-0.356C0.057,-0.388 0.064,-0.415 0.076,-0.437C0.088,-0.459 0.104,-0.477 0.124,-0.491C0.144,-0.504 0.167,-0.514 0.193,-0.52C0.218,-0.526 0.246,-0.529 0.275,-0.529C0.298,-0.529 0.322,-0.527 0.345,-0.524C0.368,-0.521 0.388,-0.514 0.407,-0.504C0.426,-0.493 0.441,-0.479 0.452,-0.46C0.463,-0.441 0.469,-0.417 0.469,-0.387L0.469,-0.121C0.469,-0.101 0.47,-0.086 0.473,-0.077C0.475,-0.068 0.483,-0.063 0.496,-0.063C0.503,-0.063 0.512,-0.065 0.522,-0.068L0.522,-0.002ZM0.384,-0.267C0.373,-0.259 0.359,-0.253 0.342,-0.25C0.325,-0.246 0.307,-0.243 0.288,-0.241C0.269,-0.238 0.249,-0.236 0.23,-0.233C0.211,-0.23 0.193,-0.225 0.178,-0.218C0.163,-0.211 0.15,-0.202 0.141,-0.19C0.131,-0.177 0.126,-0.16 0.126,-0.139C0.126,-0.125 0.129,-0.113 0.135,-0.104C0.14,-0.094 0.148,-0.086 0.157,-0.08C0.166,-0.074 0.176,-0.07 0.188,-0.067C0.2,-0.064 0.213,-0.063 0.226,-0.063C0.254,-0.063 0.278,-0.067 0.298,-0.075C0.318,-0.082 0.334,-0.092 0.347,-0.104C0.36,-0.115 0.369,-0.128 0.375,-0.142C0.381,-0.155 0.384,-0.168 0.384,-0.18L0.384,-0.267Z" style="fill-rule:nonzero;"/>
                </g>
                <g transform="matrix(25,0,0,25,108.656,126.735)">
                    <path d="M0.116,-0.163L0.031,-0.163C0.032,-0.131 0.039,-0.104 0.051,-0.082C0.063,-0.059 0.079,-0.041 0.099,-0.028C0.119,-0.014 0.142,-0.004 0.168,0.002C0.194,0.008 0.221,0.011 0.25,0.011C0.276,0.011 0.302,0.008 0.329,0.004C0.355,-0.002 0.379,-0.01 0.4,-0.023C0.421,-0.036 0.438,-0.052 0.451,-0.073C0.464,-0.094 0.47,-0.12 0.47,-0.151C0.47,-0.176 0.465,-0.196 0.456,-0.213C0.446,-0.23 0.433,-0.244 0.418,-0.255C0.402,-0.266 0.384,-0.274 0.364,-0.281C0.343,-0.288 0.322,-0.293 0.301,-0.298C0.281,-0.303 0.261,-0.307 0.241,-0.312C0.221,-0.316 0.203,-0.321 0.187,-0.328C0.171,-0.334 0.158,-0.342 0.148,-0.352C0.137,-0.361 0.132,-0.373 0.132,-0.388C0.132,-0.401 0.135,-0.412 0.142,-0.421C0.149,-0.429 0.157,-0.436 0.168,-0.441C0.179,-0.446 0.191,-0.449 0.204,-0.451C0.217,-0.453 0.229,-0.454 0.242,-0.454C0.256,-0.454 0.27,-0.452 0.284,-0.45C0.297,-0.447 0.31,-0.442 0.321,-0.435C0.332,-0.428 0.342,-0.42 0.349,-0.409C0.356,-0.398 0.361,-0.384 0.362,-0.367L0.447,-0.367C0.445,-0.398 0.438,-0.425 0.427,-0.446C0.416,-0.467 0.401,-0.483 0.382,-0.496C0.363,-0.508 0.341,-0.517 0.316,-0.522C0.291,-0.527 0.264,-0.529 0.235,-0.529C0.212,-0.529 0.19,-0.526 0.167,-0.521C0.143,-0.515 0.123,-0.506 0.105,-0.495C0.086,-0.483 0.071,-0.468 0.06,-0.449C0.048,-0.43 0.042,-0.408 0.042,-0.382C0.042,-0.349 0.05,-0.323 0.067,-0.304C0.084,-0.285 0.105,-0.271 0.13,-0.261C0.155,-0.25 0.182,-0.242 0.211,-0.237C0.24,-0.231 0.268,-0.225 0.293,-0.218C0.318,-0.211 0.338,-0.201 0.355,-0.19C0.372,-0.179 0.38,-0.162 0.38,-0.14C0.38,-0.124 0.376,-0.111 0.368,-0.101C0.36,-0.09 0.35,-0.082 0.338,-0.077C0.325,-0.072 0.312,-0.068 0.297,-0.066C0.282,-0.064 0.268,-0.063 0.255,-0.063C0.238,-0.063 0.221,-0.065 0.205,-0.068C0.188,-0.071 0.173,-0.077 0.161,-0.085C0.148,-0.092 0.137,-0.102 0.129,-0.116C0.121,-0.129 0.117,-0.144 0.116,-0.163Z" style="fill-rule:nonzero;"/>
                </g>
                <g transform="matrix(25,0,0,25,121.156,126.735)">
                    <path d="M0.182,-0.517L0.182,-0.672L0.097,-0.672L0.097,-0.517L0.009,-0.517L0.009,-0.442L0.097,-0.442L0.097,-0.113C0.097,-0.089 0.099,-0.07 0.104,-0.055C0.109,-0.04 0.116,-0.029 0.126,-0.021C0.135,-0.013 0.148,-0.008 0.164,-0.005C0.179,-0.002 0.198,-0 0.22,-0L0.285,-0L0.285,-0.075L0.246,-0.075C0.233,-0.075 0.222,-0.076 0.214,-0.077C0.205,-0.078 0.199,-0.08 0.194,-0.083C0.189,-0.086 0.186,-0.091 0.185,-0.097C0.183,-0.103 0.182,-0.111 0.182,-0.121L0.182,-0.442L0.285,-0.442L0.285,-0.517L0.182,-0.517Z" style="fill-rule:nonzero;"/>
                </g>
                <g transform="matrix(25,0,0,25,129.031,126.735)">
                    <path d="M0.154,-0.61L0.154,-0.714L0.069,-0.714L0.069,-0.61L0.154,-0.61ZM0.069,-0.517L0.069,-0L0.154,-0L0.154,-0.517L0.069,-0.517Z" style="fill-rule:nonzero;"/>
                </g>
                <g transform="matrix(25,0,0,25,134.581,126.735)">
                    <path d="M0.415,-0.351L0.503,-0.351C0.5,-0.382 0.492,-0.408 0.479,-0.431C0.466,-0.453 0.45,-0.471 0.431,-0.486C0.411,-0.501 0.388,-0.511 0.363,-0.519C0.337,-0.526 0.309,-0.529 0.28,-0.529C0.239,-0.529 0.204,-0.522 0.173,-0.508C0.142,-0.493 0.117,-0.474 0.097,-0.449C0.076,-0.424 0.061,-0.394 0.051,-0.361C0.041,-0.327 0.036,-0.291 0.036,-0.252C0.036,-0.213 0.041,-0.178 0.052,-0.146C0.062,-0.113 0.077,-0.085 0.098,-0.062C0.118,-0.039 0.143,-0.021 0.174,-0.008C0.204,0.005 0.239,0.011 0.278,0.011C0.344,0.011 0.396,-0.006 0.435,-0.041C0.473,-0.076 0.497,-0.125 0.506,-0.189L0.419,-0.189C0.414,-0.149 0.399,-0.118 0.376,-0.096C0.352,-0.074 0.319,-0.063 0.277,-0.063C0.25,-0.063 0.227,-0.068 0.208,-0.079C0.189,-0.09 0.173,-0.104 0.161,-0.122C0.149,-0.139 0.14,-0.159 0.135,-0.182C0.129,-0.205 0.126,-0.228 0.126,-0.252C0.126,-0.278 0.129,-0.303 0.134,-0.328C0.139,-0.352 0.148,-0.373 0.161,-0.392C0.173,-0.411 0.189,-0.426 0.21,-0.437C0.231,-0.448 0.256,-0.454 0.287,-0.454C0.323,-0.454 0.352,-0.445 0.373,-0.427C0.394,-0.409 0.408,-0.384 0.415,-0.351Z" style="fill-rule:nonzero;"/>
                </g>
                <g transform="matrix(25,0,0,25,154.956,126.735)">
                    <path d="M0.415,-0.351L0.503,-0.351C0.5,-0.382 0.492,-0.408 0.479,-0.431C0.466,-0.453 0.45,-0.471 0.431,-0.486C0.411,-0.501 0.388,-0.511 0.363,-0.519C0.337,-0.526 0.309,-0.529 0.28,-0.529C0.239,-0.529 0.204,-0.522 0.173,-0.508C0.142,-0.493 0.117,-0.474 0.097,-0.449C0.076,-0.424 0.061,-0.394 0.051,-0.361C0.041,-0.327 0.036,-0.291 0.036,-0.252C0.036,-0.213 0.041,-0.178 0.052,-0.146C0.062,-0.113 0.077,-0.085 0.098,-0.062C0.118,-0.039 0.143,-0.021 0.174,-0.008C0.204,0.005 0.239,0.011 0.278,0.011C0.344,0.011 0.396,-0.006 0.435,-0.041C0.473,-0.076 0.497,-0.125 0.506,-0.189L0.419,-0.189C0.414,-0.149 0.399,-0.118 0.376,-0.096C0.352,-0.074 0.319,-0.063 0.277,-0.063C0.25,-0.063 0.227,-0.068 0.208,-0.079C0.189,-0.09 0.173,-0.104 0.161,-0.122C0.149,-0.139 0.14,-0.159 0.135,-0.182C0.129,-0.205 0.126,-0.228 0.126,-0.252C0.126,-0.278 0.129,-0.303 0.134,-0.328C0.139,-0.352 0.148,-0.373 0.161,-0.392C0.173,-0.411 0.189,-0.426 0.21,-0.437C0.231,-0.448 0.256,-0.454 0.287,-0.454C0.323,-0.454 0.352,-0.445 0.373,-0.427C0.394,-0.409 0.408,-0.384 0.415,-0.351Z" style="fill-rule:nonzero;"/>
                </g>
                <g transform="matrix(25,0,0,25,168.381,126.735)">
                    <path d="M0.423,-0.308L0.126,-0.308C0.127,-0.328 0.132,-0.347 0.139,-0.365C0.146,-0.382 0.156,-0.398 0.169,-0.411C0.182,-0.424 0.197,-0.435 0.215,-0.443C0.232,-0.45 0.252,-0.454 0.274,-0.454C0.295,-0.454 0.315,-0.45 0.333,-0.443C0.35,-0.435 0.366,-0.425 0.379,-0.412C0.392,-0.399 0.402,-0.383 0.41,-0.365C0.417,-0.347 0.422,-0.328 0.423,-0.308ZM0.505,-0.164L0.421,-0.164C0.414,-0.13 0.399,-0.105 0.376,-0.088C0.353,-0.071 0.323,-0.063 0.287,-0.063C0.259,-0.063 0.235,-0.068 0.214,-0.077C0.193,-0.086 0.176,-0.099 0.163,-0.115C0.15,-0.13 0.14,-0.148 0.134,-0.169C0.128,-0.189 0.125,-0.21 0.126,-0.233L0.513,-0.233C0.514,-0.264 0.511,-0.297 0.505,-0.332C0.498,-0.367 0.485,-0.399 0.467,-0.428C0.448,-0.457 0.424,-0.482 0.394,-0.501C0.363,-0.52 0.325,-0.529 0.279,-0.529C0.244,-0.529 0.211,-0.522 0.182,-0.509C0.152,-0.496 0.126,-0.477 0.105,-0.453C0.083,-0.429 0.066,-0.401 0.054,-0.368C0.042,-0.335 0.036,-0.299 0.036,-0.26C0.037,-0.221 0.043,-0.184 0.054,-0.151C0.064,-0.118 0.079,-0.089 0.1,-0.065C0.121,-0.041 0.146,-0.022 0.177,-0.009C0.207,0.004 0.243,0.011 0.284,0.011C0.343,0.011 0.391,-0.004 0.43,-0.033C0.469,-0.062 0.494,-0.106 0.505,-0.164Z" style="fill-rule:nonzero;"/>
                </g>
                <g transform="matrix(25,0,0,25,181.806,126.735)">
                    <rect x="0.069" y="-0.714" width="0.085" height="0.714"/>
                </g>
                <g transform="matrix(25,0,0,25,187.356,126.735)">
                    <rect x="0.069" y="-0.714" width="0.085" height="0.714"/>
                </g>
                <g transform="matrix(25,0,0,25,199.856,126.735)">
                    <path d="M0.126,-0.254C0.126,-0.279 0.129,-0.304 0.134,-0.328C0.139,-0.352 0.148,-0.373 0.16,-0.392C0.172,-0.411 0.188,-0.426 0.208,-0.437C0.228,-0.448 0.252,-0.454 0.281,-0.454C0.31,-0.454 0.335,-0.448 0.356,-0.438C0.377,-0.427 0.394,-0.412 0.407,-0.394C0.42,-0.376 0.429,-0.355 0.435,-0.332C0.441,-0.308 0.444,-0.283 0.444,-0.258C0.444,-0.234 0.441,-0.21 0.436,-0.187C0.43,-0.164 0.421,-0.143 0.408,-0.125C0.395,-0.106 0.379,-0.091 0.359,-0.08C0.339,-0.069 0.315,-0.063 0.286,-0.063C0.259,-0.063 0.235,-0.068 0.215,-0.079C0.194,-0.09 0.178,-0.104 0.165,-0.122C0.152,-0.14 0.142,-0.161 0.136,-0.184C0.129,-0.206 0.126,-0.23 0.126,-0.254ZM0.526,-0L0.526,-0.714L0.441,-0.714L0.441,-0.448L0.439,-0.448C0.43,-0.463 0.418,-0.476 0.405,-0.487C0.391,-0.497 0.376,-0.505 0.361,-0.512C0.346,-0.518 0.33,-0.522 0.315,-0.525C0.3,-0.528 0.285,-0.529 0.272,-0.529C0.233,-0.529 0.198,-0.522 0.169,-0.508C0.139,-0.493 0.114,-0.474 0.095,-0.45C0.075,-0.425 0.06,-0.397 0.051,-0.364C0.041,-0.331 0.036,-0.297 0.036,-0.26C0.036,-0.223 0.041,-0.189 0.051,-0.156C0.061,-0.123 0.076,-0.095 0.096,-0.07C0.115,-0.045 0.14,-0.026 0.17,-0.011C0.199,0.004 0.234,0.011 0.274,0.011C0.31,0.011 0.343,0.005 0.373,-0.008C0.403,-0.021 0.425,-0.041 0.439,-0.07L0.441,-0.07L0.441,-0L0.526,-0Z" style="fill-rule:nonzero;"/>
                </g>
                <g transform="matrix(25,0,0,25,214.681,126.735)">
                    <path d="M0.154,-0.61L0.154,-0.714L0.069,-0.714L0.069,-0.61L0.154,-0.61ZM0.069,-0.517L0.069,-0L0.154,-0L0.154,-0.517L0.069,-0.517Z" style="fill-rule:nonzero;"/>
                </g>
                <g transform="matrix(25,0,0,25,220.231,126.735)">
                    <path d="M0.297,-0L0.486,-0.517L0.397,-0.517L0.256,-0.086L0.254,-0.086L0.109,-0.517L0.014,-0.517L0.206,-0L0.297,-0Z" style="fill-rule:nonzero;"/>
                </g>
                <g transform="matrix(25,0,0,25,232.731,126.735)">
                    <path d="M0.154,-0.61L0.154,-0.714L0.069,-0.714L0.069,-0.61L0.154,-0.61ZM0.069,-0.517L0.069,-0L0.154,-0L0.154,-0.517L0.069,-0.517Z" style="fill-rule:nonzero;"/>
                </g>
                <g transform="matrix(25,0,0,25,238.281,126.735)">
                    <path d="M0.116,-0.163L0.031,-0.163C0.032,-0.131 0.039,-0.104 0.051,-0.082C0.063,-0.059 0.079,-0.041 0.099,-0.028C0.119,-0.014 0.142,-0.004 0.168,0.002C0.194,0.008 0.221,0.011 0.25,0.011C0.276,0.011 0.302,0.008 0.329,0.004C0.355,-0.002 0.379,-0.01 0.4,-0.023C0.421,-0.036 0.438,-0.052 0.451,-0.073C0.464,-0.094 0.47,-0.12 0.47,-0.151C0.47,-0.176 0.465,-0.196 0.456,-0.213C0.446,-0.23 0.433,-0.244 0.418,-0.255C0.402,-0.266 0.384,-0.274 0.364,-0.281C0.343,-0.288 0.322,-0.293 0.301,-0.298C0.281,-0.303 0.261,-0.307 0.241,-0.312C0.221,-0.316 0.203,-0.321 0.187,-0.328C0.171,-0.334 0.158,-0.342 0.148,-0.352C0.137,-0.361 0.132,-0.373 0.132,-0.388C0.132,-0.401 0.135,-0.412 0.142,-0.421C0.149,-0.429 0.157,-0.436 0.168,-0.441C0.179,-0.446 0.191,-0.449 0.204,-0.451C0.217,-0.453 0.229,-0.454 0.242,-0.454C0.256,-0.454 0.27,-0.452 0.284,-0.45C0.297,-0.447 0.31,-0.442 0.321,-0.435C0.332,-0.428 0.342,-0.42 0.349,-0.409C0.356,-0.398 0.361,-0.384 0.362,-0.367L0.447,-0.367C0.445,-0.398 0.438,-0.425 0.427,-0.446C0.416,-0.467 0.401,-0.483 0.382,-0.496C0.363,-0.508 0.341,-0.517 0.316,-0.522C0.291,-0.527 0.264,-0.529 0.235,-0.529C0.212,-0.529 0.19,-0.526 0.167,-0.521C0.143,-0.515 0.123,-0.506 0.105,-0.495C0.086,-0.483 0.071,-0.468 0.06,-0.449C0.048,-0.43 0.042,-0.408 0.042,-0.382C0.042,-0.349 0.05,-0.323 0.067,-0.304C0.084,-0.285 0.105,-0.271 0.13,-0.261C0.155,-0.25 0.182,-0.242 0.211,-0.237C0.24,-0.231 0.268,-0.225 0.293,-0.218C0.318,-0.211 0.338,-0.201 0.355,-0.19C0.372,-0.179 0.38,-0.162 0.38,-0.14C0.38,-0.124 0.376,-0.111 0.368,-0.101C0.36,-0.09 0.35,-0.082 0.338,-0.077C0.325,-0.072 0.312,-0.068 0.297,-0.066C0.282,-0.064 0.268,-0.063 0.255,-0.063C0.238,-0.063 0.221,-0.065 0.205,-0.068C0.188,-0.071 0.173,-0.077 0.161,-0.085C0.148,-0.092 0.137,-0.102 0.129,-0.116C0.121,-0.129 0.117,-0.144 0.116,-0.163Z" style="fill-rule:nonzero;"/>
                </g>
                <g transform="matrix(25,0,0,25,250.781,126.735)">
                    <path d="M0.154,-0.61L0.154,-0.714L0.069,-0.714L0.069,-0.61L0.154,-0.61ZM0.069,-0.517L0.069,-0L0.154,-0L0.154,-0.517L0.069,-0.517Z" style="fill-rule:nonzero;"/>
                </g>
                <g transform="matrix(25,0,0,25,256.331,126.735)">
                    <path d="M0.126,-0.258C0.126,-0.289 0.13,-0.317 0.139,-0.342C0.147,-0.366 0.158,-0.386 0.173,-0.403C0.188,-0.42 0.205,-0.432 0.225,-0.441C0.244,-0.45 0.265,-0.454 0.287,-0.454C0.309,-0.454 0.33,-0.45 0.35,-0.441C0.369,-0.432 0.386,-0.42 0.401,-0.403C0.416,-0.386 0.427,-0.366 0.436,-0.342C0.444,-0.317 0.448,-0.289 0.448,-0.258C0.448,-0.227 0.444,-0.199 0.436,-0.175C0.427,-0.15 0.416,-0.13 0.401,-0.114C0.386,-0.097 0.369,-0.085 0.35,-0.076C0.33,-0.067 0.309,-0.063 0.287,-0.063C0.265,-0.063 0.244,-0.067 0.225,-0.076C0.205,-0.085 0.188,-0.097 0.173,-0.114C0.158,-0.13 0.147,-0.15 0.139,-0.175C0.13,-0.199 0.126,-0.227 0.126,-0.258ZM0.036,-0.258C0.036,-0.22 0.041,-0.185 0.052,-0.152C0.063,-0.119 0.079,-0.091 0.1,-0.067C0.121,-0.042 0.148,-0.023 0.179,-0.01C0.21,0.004 0.246,0.011 0.287,0.011C0.328,0.011 0.365,0.004 0.396,-0.01C0.427,-0.023 0.453,-0.042 0.474,-0.067C0.495,-0.091 0.511,-0.119 0.522,-0.152C0.533,-0.185 0.538,-0.22 0.538,-0.258C0.538,-0.296 0.533,-0.331 0.522,-0.365C0.511,-0.398 0.495,-0.426 0.474,-0.451C0.453,-0.475 0.427,-0.494 0.396,-0.508C0.365,-0.522 0.328,-0.529 0.287,-0.529C0.246,-0.529 0.21,-0.522 0.179,-0.508C0.148,-0.494 0.121,-0.475 0.1,-0.451C0.079,-0.426 0.063,-0.398 0.052,-0.365C0.041,-0.331 0.036,-0.296 0.036,-0.258Z" style="fill-rule:nonzero;"/>
                </g>
                <g transform="matrix(25,0,0,25,270.681,126.735)">
                    <path d="M0.064,-0.517L0.064,-0L0.149,-0L0.149,-0.292C0.149,-0.315 0.152,-0.337 0.159,-0.357C0.165,-0.376 0.174,-0.393 0.187,-0.408C0.2,-0.423 0.216,-0.434 0.235,-0.442C0.254,-0.45 0.276,-0.454 0.302,-0.454C0.335,-0.454 0.36,-0.445 0.379,-0.426C0.398,-0.407 0.407,-0.382 0.407,-0.35L0.407,-0L0.492,-0L0.492,-0.34C0.492,-0.368 0.489,-0.393 0.484,-0.417C0.478,-0.44 0.468,-0.459 0.454,-0.476C0.44,-0.493 0.422,-0.506 0.399,-0.515C0.376,-0.524 0.348,-0.529 0.314,-0.529C0.237,-0.529 0.181,-0.498 0.146,-0.435L0.144,-0.435L0.144,-0.517L0.064,-0.517Z" style="fill-rule:nonzero;"/>
                </g>
                <g transform="matrix(25,0,0,25,284.581,126.735)">
                    <path d="M0.116,-0.163L0.031,-0.163C0.032,-0.131 0.039,-0.104 0.051,-0.082C0.063,-0.059 0.079,-0.041 0.099,-0.028C0.119,-0.014 0.142,-0.004 0.168,0.002C0.194,0.008 0.221,0.011 0.25,0.011C0.276,0.011 0.302,0.008 0.329,0.004C0.355,-0.002 0.379,-0.01 0.4,-0.023C0.421,-0.036 0.438,-0.052 0.451,-0.073C0.464,-0.094 0.47,-0.12 0.47,-0.151C0.47,-0.176 0.465,-0.196 0.456,-0.213C0.446,-0.23 0.433,-0.244 0.418,-0.255C0.402,-0.266 0.384,-0.274 0.364,-0.281C0.343,-0.288 0.322,-0.293 0.301,-0.298C0.281,-0.303 0.261,-0.307 0.241,-0.312C0.221,-0.316 0.203,-0.321 0.187,-0.328C0.171,-0.334 0.158,-0.342 0.148,-0.352C0.137,-0.361 0.132,-0.373 0.132,-0.388C0.132,-0.401 0.135,-0.412 0.142,-0.421C0.149,-0.429 0.157,-0.436 0.168,-0.441C0.179,-0.446 0.191,-0.449 0.204,-0.451C0.217,-0.453 0.229,-0.454 0.242,-0.454C0.256,-0.454 0.27,-0.452 0.284,-0.45C0.297,-0.447 0.31,-0.442 0.321,-0.435C0.332,-0.428 0.342,-0.42 0.349,-0.409C0.356,-0.398 0.361,-0.384 0.362,-0.367L0.447,-0.367C0.445,-0.398 0.438,-0.425 0.427,-0.446C0.416,-0.467 0.401,-0.483 0.382,-0.496C0.363,-0.508 0.341,-0.517 0.316,-0.522C0.291,-0.527 0.264,-0.529 0.235,-0.529C0.212,-0.529 0.19,-0.526 0.167,-0.521C0.143,-0.515 0.123,-0.506 0.105,-0.495C0.086,-0.483 0.071,-0.468 0.06,-0.449C0.048,-0.43 0.042,-0.408 0.042,-0.382C0.042,-0.349 0.05,-0.323 0.067,-0.304C0.084,-0.285 0.105,-0.271 0.13,-0.261C0.155,-0.25 0.182,-0.242 0.211,-0.237C0.24,-0.231 0.268,-0.225 0.293,-0.218C0.318,-0.211 0.338,-0.201 0.355,-0.19C0.372,-0.179 0.38,-0.162 0.38,-0.14C0.38,-0.124 0.376,-0.111 0.368,-0.101C0.36,-0.09 0.35,-0.082 0.338,-0.077C0.325,-0.072 0.312,-0.068 0.297,-0.066C0.282,-0.064 0.268,-0.063 0.255,-0.063C0.238,-0.063 0.221,-0.065 0.205,-0.068C0.188,-0.071 0.173,-0.077 0.161,-0.085C0.148,-0.092 0.137,-0.102 0.129,-0.116C0.121,-0.129 0.117,-0.144 0.116,-0.163Z" style="fill-rule:nonzero;"/>
                </g>
            </g>
            <g transform="matrix(1,0,0,1,190.528,472.825)">
                <g transform="matrix(25,0,0,25,29.4811,126.735)">
                    <path d="M0.545,-0.474L0.697,-0.474C0.692,-0.515 0.681,-0.552 0.663,-0.584C0.645,-0.616 0.622,-0.643 0.595,-0.665C0.567,-0.686 0.536,-0.703 0.501,-0.714C0.466,-0.725 0.428,-0.731 0.389,-0.731C0.334,-0.731 0.285,-0.721 0.242,-0.702C0.198,-0.683 0.161,-0.656 0.131,-0.622C0.101,-0.588 0.078,-0.548 0.062,-0.503C0.046,-0.457 0.038,-0.407 0.038,-0.354C0.038,-0.302 0.046,-0.254 0.062,-0.209C0.078,-0.164 0.101,-0.124 0.131,-0.091C0.161,-0.058 0.198,-0.032 0.242,-0.013C0.285,0.007 0.334,0.016 0.389,0.016C0.433,0.016 0.473,0.009 0.51,-0.004C0.547,-0.017 0.579,-0.037 0.606,-0.062C0.633,-0.087 0.655,-0.118 0.672,-0.154C0.689,-0.19 0.699,-0.23 0.703,-0.275L0.551,-0.275C0.545,-0.227 0.529,-0.188 0.502,-0.159C0.475,-0.13 0.437,-0.115 0.389,-0.115C0.354,-0.115 0.324,-0.122 0.299,-0.136C0.274,-0.149 0.254,-0.167 0.239,-0.19C0.224,-0.213 0.213,-0.238 0.206,-0.267C0.199,-0.295 0.195,-0.324 0.195,-0.354C0.195,-0.385 0.199,-0.416 0.206,-0.445C0.213,-0.474 0.224,-0.501 0.239,-0.524C0.254,-0.547 0.274,-0.565 0.299,-0.579C0.324,-0.592 0.354,-0.599 0.389,-0.599C0.408,-0.599 0.427,-0.596 0.445,-0.59C0.462,-0.583 0.478,-0.574 0.492,-0.563C0.506,-0.552 0.518,-0.539 0.527,-0.524C0.536,-0.509 0.542,-0.492 0.545,-0.474Z" style="fill-rule:nonzero;"/>
                </g>
                <g transform="matrix(25,0,0,25,48.0061,126.735)">
                    <path d="M0.402,-0.314L0.171,-0.314C0.172,-0.324 0.174,-0.335 0.178,-0.348C0.181,-0.361 0.188,-0.373 0.197,-0.384C0.206,-0.395 0.218,-0.405 0.233,-0.413C0.248,-0.42 0.266,-0.424 0.289,-0.424C0.324,-0.424 0.349,-0.415 0.367,-0.396C0.384,-0.377 0.395,-0.35 0.402,-0.314ZM0.171,-0.224L0.544,-0.224C0.547,-0.264 0.543,-0.302 0.534,-0.339C0.525,-0.376 0.509,-0.408 0.489,-0.437C0.468,-0.466 0.441,-0.489 0.408,-0.506C0.375,-0.523 0.337,-0.531 0.293,-0.531C0.254,-0.531 0.218,-0.524 0.186,-0.51C0.153,-0.496 0.125,-0.477 0.102,-0.453C0.079,-0.428 0.061,-0.399 0.048,-0.366C0.035,-0.333 0.029,-0.297 0.029,-0.258C0.029,-0.218 0.035,-0.181 0.048,-0.148C0.06,-0.115 0.077,-0.086 0.1,-0.062C0.123,-0.038 0.15,-0.02 0.183,-0.007C0.216,0.007 0.252,0.013 0.293,0.013C0.352,0.013 0.402,-0 0.443,-0.027C0.484,-0.054 0.515,-0.098 0.535,-0.16L0.41,-0.16C0.405,-0.144 0.393,-0.129 0.372,-0.115C0.351,-0.1 0.327,-0.093 0.298,-0.093C0.258,-0.093 0.227,-0.103 0.206,-0.124C0.185,-0.145 0.173,-0.178 0.171,-0.224Z" style="fill-rule:nonzero;"/>
                </g>
                <g transform="matrix(25,0,0,25,62.3561,126.735)">
                    <rect x="0.058" y="-0.714" width="0.142" height="0.714"/>
                </g>
                <g transform="matrix(25,0,0,25,68.8061,126.735)">
                    <rect x="0.058" y="-0.714" width="0.142" height="0.714"/>
                </g>
                <g transform="matrix(25,0,0,25,82.2061,126.735)">
                    <path d="M0.406,-0.335L0.545,-0.335C0.543,-0.368 0.535,-0.397 0.521,-0.422C0.507,-0.446 0.489,-0.466 0.467,-0.483C0.444,-0.499 0.419,-0.511 0.391,-0.519C0.362,-0.527 0.333,-0.531 0.302,-0.531C0.26,-0.531 0.223,-0.524 0.19,-0.51C0.157,-0.496 0.13,-0.476 0.107,-0.452C0.084,-0.427 0.067,-0.397 0.056,-0.363C0.044,-0.328 0.038,-0.291 0.038,-0.251C0.038,-0.212 0.044,-0.177 0.057,-0.145C0.07,-0.112 0.087,-0.084 0.11,-0.061C0.133,-0.038 0.16,-0.02 0.193,-0.007C0.225,0.007 0.26,0.013 0.299,0.013C0.368,0.013 0.424,-0.005 0.468,-0.041C0.512,-0.077 0.539,-0.129 0.548,-0.198L0.411,-0.198C0.406,-0.166 0.395,-0.14 0.377,-0.122C0.358,-0.102 0.332,-0.093 0.298,-0.093C0.276,-0.093 0.257,-0.098 0.242,-0.108C0.227,-0.118 0.215,-0.131 0.206,-0.147C0.197,-0.162 0.19,-0.18 0.186,-0.199C0.182,-0.218 0.18,-0.237 0.18,-0.256C0.18,-0.275 0.182,-0.295 0.186,-0.315C0.19,-0.334 0.197,-0.352 0.207,-0.369C0.216,-0.385 0.229,-0.398 0.244,-0.409C0.259,-0.419 0.278,-0.424 0.301,-0.424C0.362,-0.424 0.397,-0.394 0.406,-0.335Z" style="fill-rule:nonzero;"/>
                </g>
                <g transform="matrix(25,0,0,25,96.5561,126.735)">
                    <path d="M0.18,-0.258C0.18,-0.279 0.182,-0.299 0.186,-0.319C0.19,-0.339 0.197,-0.357 0.207,-0.372C0.216,-0.387 0.229,-0.4 0.245,-0.41C0.261,-0.419 0.281,-0.424 0.305,-0.424C0.329,-0.424 0.349,-0.419 0.366,-0.41C0.382,-0.4 0.395,-0.387 0.405,-0.372C0.414,-0.357 0.421,-0.339 0.425,-0.319C0.429,-0.299 0.431,-0.279 0.431,-0.258C0.431,-0.237 0.429,-0.217 0.425,-0.198C0.421,-0.178 0.414,-0.16 0.405,-0.145C0.395,-0.129 0.382,-0.116 0.366,-0.107C0.349,-0.098 0.329,-0.093 0.305,-0.093C0.281,-0.093 0.261,-0.098 0.245,-0.107C0.229,-0.116 0.216,-0.129 0.207,-0.145C0.197,-0.16 0.19,-0.178 0.186,-0.198C0.182,-0.217 0.18,-0.237 0.18,-0.258ZM0.038,-0.258C0.038,-0.217 0.044,-0.179 0.057,-0.146C0.07,-0.113 0.088,-0.084 0.111,-0.061C0.134,-0.037 0.162,-0.019 0.195,-0.006C0.228,0.007 0.264,0.013 0.305,0.013C0.346,0.013 0.383,0.007 0.416,-0.006C0.449,-0.019 0.477,-0.037 0.5,-0.061C0.523,-0.084 0.541,-0.113 0.554,-0.146C0.567,-0.179 0.573,-0.217 0.573,-0.258C0.573,-0.299 0.567,-0.337 0.554,-0.371C0.541,-0.404 0.523,-0.433 0.5,-0.457C0.477,-0.48 0.449,-0.499 0.416,-0.512C0.383,-0.525 0.346,-0.531 0.305,-0.531C0.264,-0.531 0.228,-0.525 0.195,-0.512C0.162,-0.499 0.134,-0.48 0.111,-0.457C0.088,-0.433 0.07,-0.404 0.057,-0.371C0.044,-0.337 0.038,-0.299 0.038,-0.258Z" style="fill-rule:nonzero;"/>
                </g>
                <g transform="matrix(25,0,0,25,111.831,126.735)">
                    <path d="M0.539,-0L0.539,-0.517L0.397,-0.517L0.397,-0.246C0.397,-0.193 0.388,-0.156 0.371,-0.133C0.354,-0.11 0.326,-0.098 0.287,-0.098C0.253,-0.098 0.229,-0.109 0.216,-0.13C0.203,-0.151 0.196,-0.182 0.196,-0.225L0.196,-0.517L0.054,-0.517L0.054,-0.199C0.054,-0.167 0.057,-0.138 0.063,-0.112C0.068,-0.085 0.078,-0.063 0.092,-0.045C0.106,-0.026 0.125,-0.012 0.15,-0.002C0.174,0.008 0.205,0.013 0.243,0.013C0.273,0.013 0.302,0.006 0.331,-0.007C0.36,-0.02 0.383,-0.042 0.401,-0.072L0.404,-0.072L0.404,-0L0.539,-0Z" style="fill-rule:nonzero;"/>
                </g>
                <g transform="matrix(25,0,0,25,126.656,126.735)">
                    <path d="M0.054,-0.517L0.054,-0L0.196,-0L0.196,-0.271C0.196,-0.324 0.205,-0.362 0.222,-0.385C0.239,-0.407 0.267,-0.419 0.306,-0.419C0.34,-0.419 0.364,-0.409 0.377,-0.388C0.39,-0.367 0.397,-0.335 0.397,-0.292L0.397,-0L0.539,-0L0.539,-0.318C0.539,-0.35 0.536,-0.379 0.531,-0.406C0.525,-0.432 0.515,-0.454 0.501,-0.473C0.487,-0.491 0.468,-0.505 0.444,-0.516C0.419,-0.526 0.388,-0.531 0.35,-0.531C0.32,-0.531 0.291,-0.524 0.262,-0.511C0.233,-0.497 0.21,-0.475 0.192,-0.445L0.189,-0.445L0.189,-0.517L0.054,-0.517Z" style="fill-rule:nonzero;"/>
                </g>
                <g transform="matrix(25,0,0,25,141.481,126.735)">
                    <path d="M0.234,-0.517L0.234,-0.672L0.092,-0.672L0.092,-0.517L0.006,-0.517L0.006,-0.422L0.092,-0.422L0.092,-0.117C0.092,-0.091 0.096,-0.07 0.105,-0.054C0.114,-0.038 0.126,-0.026 0.141,-0.017C0.156,-0.008 0.173,-0.003 0.193,0.001C0.212,0.004 0.233,0.005 0.255,0.005C0.269,0.005 0.283,0.005 0.298,0.004C0.313,0.003 0.326,0.002 0.338,-0L0.338,-0.11C0.331,-0.109 0.324,-0.108 0.317,-0.107C0.31,-0.106 0.302,-0.106 0.294,-0.106C0.27,-0.106 0.254,-0.11 0.246,-0.118C0.238,-0.126 0.234,-0.142 0.234,-0.166L0.234,-0.422L0.338,-0.422L0.338,-0.517L0.234,-0.517Z" style="fill-rule:nonzero;"/>
                </g>
                <g transform="matrix(25,0,0,25,157.231,126.735)">
                    <path d="M0.421,-0.26C0.421,-0.239 0.419,-0.218 0.415,-0.198C0.411,-0.178 0.404,-0.16 0.395,-0.145C0.386,-0.129 0.373,-0.116 0.358,-0.107C0.342,-0.098 0.322,-0.093 0.299,-0.093C0.277,-0.093 0.258,-0.098 0.243,-0.108C0.227,-0.117 0.214,-0.13 0.204,-0.146C0.193,-0.161 0.186,-0.179 0.181,-0.199C0.176,-0.219 0.174,-0.239 0.174,-0.259C0.174,-0.28 0.176,-0.301 0.181,-0.321C0.185,-0.34 0.192,-0.358 0.202,-0.373C0.211,-0.388 0.224,-0.401 0.24,-0.41C0.256,-0.419 0.276,-0.424 0.299,-0.424C0.322,-0.424 0.342,-0.419 0.357,-0.41C0.372,-0.401 0.385,-0.389 0.395,-0.374C0.404,-0.359 0.411,-0.341 0.415,-0.322C0.419,-0.302 0.421,-0.281 0.421,-0.26ZM0.423,-0.066L0.423,-0L0.558,-0L0.558,-0.714L0.416,-0.714L0.416,-0.454L0.414,-0.454C0.398,-0.479 0.376,-0.499 0.349,-0.512C0.321,-0.525 0.292,-0.531 0.261,-0.531C0.223,-0.531 0.19,-0.524 0.161,-0.509C0.132,-0.494 0.109,-0.474 0.09,-0.449C0.07,-0.424 0.056,-0.396 0.047,-0.364C0.037,-0.331 0.032,-0.298 0.032,-0.263C0.032,-0.227 0.037,-0.192 0.047,-0.159C0.056,-0.126 0.07,-0.096 0.09,-0.071C0.109,-0.045 0.133,-0.024 0.162,-0.01C0.191,0.006 0.225,0.013 0.264,0.013C0.298,0.013 0.329,0.007 0.356,-0.006C0.383,-0.018 0.404,-0.038 0.421,-0.066L0.423,-0.066Z" style="fill-rule:nonzero;"/>
                </g>
                <g transform="matrix(25,0,0,25,172.506,126.735)">
                    <path d="M0.048,-0.358C0.05,-0.391 0.058,-0.419 0.073,-0.441C0.088,-0.463 0.106,-0.481 0.129,-0.494C0.152,-0.507 0.177,-0.517 0.206,-0.523C0.234,-0.528 0.262,-0.531 0.291,-0.531C0.317,-0.531 0.343,-0.529 0.37,-0.526C0.397,-0.522 0.421,-0.515 0.443,-0.504C0.465,-0.493 0.483,-0.478 0.497,-0.46C0.511,-0.44 0.518,-0.415 0.518,-0.384L0.518,-0.115C0.518,-0.092 0.519,-0.069 0.522,-0.048C0.525,-0.027 0.529,-0.011 0.536,-0L0.392,-0C0.389,-0.008 0.387,-0.016 0.386,-0.025C0.384,-0.033 0.383,-0.041 0.382,-0.05C0.359,-0.027 0.333,-0.01 0.302,-0.001C0.271,0.008 0.24,0.013 0.208,0.013C0.183,0.013 0.16,0.01 0.139,0.004C0.118,-0.002 0.099,-0.011 0.083,-0.024C0.067,-0.037 0.055,-0.053 0.046,-0.072C0.037,-0.091 0.032,-0.114 0.032,-0.141C0.032,-0.17 0.037,-0.195 0.048,-0.214C0.058,-0.233 0.071,-0.248 0.088,-0.259C0.104,-0.27 0.123,-0.279 0.144,-0.285C0.165,-0.29 0.186,-0.295 0.207,-0.298C0.228,-0.301 0.249,-0.304 0.27,-0.306C0.291,-0.308 0.309,-0.311 0.325,-0.315C0.341,-0.319 0.354,-0.325 0.363,-0.333C0.372,-0.34 0.377,-0.351 0.376,-0.366C0.376,-0.381 0.374,-0.394 0.369,-0.403C0.364,-0.412 0.357,-0.419 0.349,-0.424C0.34,-0.428 0.331,-0.432 0.32,-0.434C0.309,-0.435 0.297,-0.436 0.284,-0.436C0.256,-0.436 0.234,-0.43 0.218,-0.418C0.202,-0.406 0.193,-0.386 0.19,-0.358L0.048,-0.358ZM0.376,-0.253C0.37,-0.248 0.363,-0.243 0.354,-0.241C0.345,-0.238 0.335,-0.235 0.325,-0.233C0.314,-0.231 0.303,-0.229 0.292,-0.228C0.281,-0.227 0.269,-0.225 0.258,-0.223C0.247,-0.221 0.237,-0.218 0.227,-0.215C0.216,-0.212 0.207,-0.207 0.2,-0.202C0.192,-0.196 0.186,-0.189 0.181,-0.18C0.176,-0.171 0.174,-0.16 0.174,-0.147C0.174,-0.134 0.176,-0.124 0.181,-0.115C0.186,-0.106 0.192,-0.099 0.2,-0.095C0.208,-0.09 0.217,-0.086 0.228,-0.084C0.239,-0.082 0.25,-0.081 0.261,-0.081C0.289,-0.081 0.311,-0.086 0.326,-0.095C0.341,-0.104 0.353,-0.116 0.36,-0.129C0.367,-0.141 0.372,-0.155 0.374,-0.168C0.375,-0.181 0.376,-0.192 0.376,-0.2L0.376,-0.253Z" style="fill-rule:nonzero;"/>
                </g>
                <g transform="matrix(25,0,0,25,186.856,126.735)">
                    <path d="M0.234,-0.517L0.234,-0.672L0.092,-0.672L0.092,-0.517L0.006,-0.517L0.006,-0.422L0.092,-0.422L0.092,-0.117C0.092,-0.091 0.096,-0.07 0.105,-0.054C0.114,-0.038 0.126,-0.026 0.141,-0.017C0.156,-0.008 0.173,-0.003 0.193,0.001C0.212,0.004 0.233,0.005 0.255,0.005C0.269,0.005 0.283,0.005 0.298,0.004C0.313,0.003 0.326,0.002 0.338,-0L0.338,-0.11C0.331,-0.109 0.324,-0.108 0.317,-0.107C0.31,-0.106 0.302,-0.106 0.294,-0.106C0.27,-0.106 0.254,-0.11 0.246,-0.118C0.238,-0.126 0.234,-0.142 0.234,-0.166L0.234,-0.422L0.338,-0.422L0.338,-0.517L0.234,-0.517Z" style="fill-rule:nonzero;"/>
                </g>
                <g transform="matrix(25,0,0,25,195.656,126.735)">
                    <path d="M0.048,-0.358C0.05,-0.391 0.058,-0.419 0.073,-0.441C0.088,-0.463 0.106,-0.481 0.129,-0.494C0.152,-0.507 0.177,-0.517 0.206,-0.523C0.234,-0.528 0.262,-0.531 0.291,-0.531C0.317,-0.531 0.343,-0.529 0.37,-0.526C0.397,-0.522 0.421,-0.515 0.443,-0.504C0.465,-0.493 0.483,-0.478 0.497,-0.46C0.511,-0.44 0.518,-0.415 0.518,-0.384L0.518,-0.115C0.518,-0.092 0.519,-0.069 0.522,-0.048C0.525,-0.027 0.529,-0.011 0.536,-0L0.392,-0C0.389,-0.008 0.387,-0.016 0.386,-0.025C0.384,-0.033 0.383,-0.041 0.382,-0.05C0.359,-0.027 0.333,-0.01 0.302,-0.001C0.271,0.008 0.24,0.013 0.208,0.013C0.183,0.013 0.16,0.01 0.139,0.004C0.118,-0.002 0.099,-0.011 0.083,-0.024C0.067,-0.037 0.055,-0.053 0.046,-0.072C0.037,-0.091 0.032,-0.114 0.032,-0.141C0.032,-0.17 0.037,-0.195 0.048,-0.214C0.058,-0.233 0.071,-0.248 0.088,-0.259C0.104,-0.27 0.123,-0.279 0.144,-0.285C0.165,-0.29 0.186,-0.295 0.207,-0.298C0.228,-0.301 0.249,-0.304 0.27,-0.306C0.291,-0.308 0.309,-0.311 0.325,-0.315C0.341,-0.319 0.354,-0.325 0.363,-0.333C0.372,-0.34 0.377,-0.351 0.376,-0.366C0.376,-0.381 0.374,-0.394 0.369,-0.403C0.364,-0.412 0.357,-0.419 0.349,-0.424C0.34,-0.428 0.331,-0.432 0.32,-0.434C0.309,-0.435 0.297,-0.436 0.284,-0.436C0.256,-0.436 0.234,-0.43 0.218,-0.418C0.202,-0.406 0.193,-0.386 0.19,-0.358L0.048,-0.358ZM0.376,-0.253C0.37,-0.248 0.363,-0.243 0.354,-0.241C0.345,-0.238 0.335,-0.235 0.325,-0.233C0.314,-0.231 0.303,-0.229 0.292,-0.228C0.281,-0.227 0.269,-0.225 0.258,-0.223C0.247,-0.221 0.237,-0.218 0.227,-0.215C0.216,-0.212 0.207,-0.207 0.2,-0.202C0.192,-0.196 0.186,-0.189 0.181,-0.18C0.176,-0.171 0.174,-0.16 0.174,-0.147C0.174,-0.134 0.176,-0.124 0.181,-0.115C0.186,-0.106 0.192,-0.099 0.2,-0.095C0.208,-0.09 0.217,-0.086 0.228,-0.084C0.239,-0.082 0.25,-0.081 0.261,-0.081C0.289,-0.081 0.311,-0.086 0.326,-0.095C0.341,-0.104 0.353,-0.116 0.36,-0.129C0.367,-0.141 0.372,-0.155 0.374,-0.168C0.375,-0.181 0.376,-0.192 0.376,-0.2L0.376,-0.253Z" style="fill-rule:nonzero;"/>
                </g>
            </g>
            <g transform="matrix(4.16667,0,0,4.16667,653.047,587.836)">
                <g>
                    <g transform="matrix(1,0,0,1,0,-19.7969)">
                        <g>
                            <g>
                                <path d="M27.613,65.378L38.773,65.378L38.773,61.753L49.933,61.753L49.933,29.138L55.513,29.138L55.513,50.881L61.093,50.881L61.093,54.506L66.673,54.506L66.673,61.753L72.253,61.753L72.253,65.378L83.413,65.378L27.613,65.378Z" style="fill:rgb(102,194,165);fill-rule:nonzero;"/>
                            </g>
                        </g>
                    </g>
                    <g transform="matrix(0,1,1,0,3.01562,16.9275)">
                        <path d="M28.653,27.388L32.153,27.388" style="fill:none;fill-rule:nonzero;stroke:black;stroke-width:0.4px;stroke-linejoin:round;"/>
                    </g>
                    <g transform="matrix(0,1,1,0,30.9156,-10.9725)">
                        <path d="M56.553,27.388L60.053,27.388" style="fill:none;fill-rule:nonzero;stroke:black;stroke-width:0.4px;stroke-linejoin:round;"/>
                    </g>
                    <g transform="matrix(-1,0,0,1,57.3062,16.4431)">
                        <path d="M26.903,29.138L30.403,29.138" style="fill:none;fill-rule:nonzero;stroke:black;stroke-width:0.4px;stroke-linejoin:round;"/>
                    </g>
                    <g transform="matrix(-1,0,0,1,57.3062,-19.7969)">
                        <path d="M26.903,47.258L30.403,47.258" style="fill:none;fill-rule:nonzero;stroke:black;stroke-width:0.4px;stroke-linejoin:round;"/>
                    </g>
                    <g transform="matrix(-1,0,0,1,57.3062,-56.0369)">
                        <path d="M26.903,65.378L30.403,65.378" style="fill:none;fill-rule:nonzero;stroke:black;stroke-width:0.4px;stroke-linejoin:round;"/>
                    </g>
                    <g transform="matrix(0,-1,-1,0,78.5666,56.9578)">
                        <path d="M11.377,48.164L49.429,48.164" style="fill:none;fill-rule:nonzero;stroke:black;stroke-width:0.3px;stroke-linecap:square;"/>
                    </g>
                    <g transform="matrix(1,0,0,1,0,16.4431)">
                        <path d="M30.403,29.138L80.623,29.138" style="fill:none;fill-rule:nonzero;stroke:black;stroke-width:0.3px;stroke-linecap:square;"/>
                    </g>
                    <g transform="matrix(1,0,0,1,2.3043,-43.928)">
                        <rect x="61.423" y="56.977" width="3" height="4.2" style="fill:rgb(102,194,165);"/>
                    </g>
                    <g transform="matrix(6,0,0,6,28.7313,56.8619)">
                        <path d="M0.132,-0.349C0.132,-0.366 0.132,-0.386 0.133,-0.407C0.133,-0.428 0.135,-0.448 0.138,-0.47C0.141,-0.491 0.145,-0.511 0.151,-0.531C0.156,-0.551 0.165,-0.569 0.176,-0.584C0.187,-0.599 0.2,-0.611 0.217,-0.62C0.234,-0.629 0.254,-0.634 0.278,-0.634C0.302,-0.634 0.322,-0.629 0.339,-0.62C0.356,-0.611 0.37,-0.599 0.381,-0.584C0.392,-0.569 0.4,-0.551 0.406,-0.531C0.411,-0.511 0.416,-0.491 0.419,-0.47C0.422,-0.448 0.423,-0.428 0.424,-0.407L0.424,-0.349C0.424,-0.322 0.423,-0.293 0.422,-0.26C0.42,-0.227 0.415,-0.196 0.406,-0.167C0.397,-0.137 0.382,-0.113 0.362,-0.093C0.342,-0.073 0.314,-0.063 0.278,-0.063C0.242,-0.063 0.214,-0.073 0.194,-0.093C0.174,-0.113 0.16,-0.137 0.151,-0.167C0.141,-0.196 0.136,-0.227 0.135,-0.26C0.133,-0.293 0.132,-0.322 0.132,-0.349ZM0.042,-0.348C0.042,-0.322 0.043,-0.295 0.044,-0.267C0.045,-0.239 0.049,-0.212 0.054,-0.185C0.059,-0.158 0.067,-0.133 0.077,-0.11C0.087,-0.086 0.101,-0.065 0.118,-0.047C0.135,-0.029 0.157,-0.015 0.184,-0.005C0.21,0.006 0.241,0.011 0.278,0.011C0.315,0.011 0.347,0.006 0.373,-0.005C0.399,-0.015 0.421,-0.029 0.438,-0.047C0.455,-0.065 0.469,-0.086 0.479,-0.11C0.489,-0.133 0.497,-0.158 0.502,-0.185C0.507,-0.212 0.511,-0.239 0.512,-0.267C0.513,-0.295 0.514,-0.322 0.514,-0.348C0.514,-0.374 0.513,-0.401 0.512,-0.429C0.511,-0.457 0.507,-0.484 0.502,-0.511C0.497,-0.538 0.489,-0.563 0.479,-0.587C0.469,-0.611 0.455,-0.632 0.438,-0.65C0.421,-0.668 0.399,-0.682 0.373,-0.693C0.346,-0.704 0.315,-0.709 0.278,-0.709C0.241,-0.709 0.21,-0.704 0.184,-0.693C0.157,-0.682 0.135,-0.668 0.118,-0.65C0.101,-0.632 0.087,-0.611 0.077,-0.587C0.067,-0.563 0.059,-0.538 0.054,-0.511C0.049,-0.484 0.045,-0.457 0.044,-0.429C0.043,-0.401 0.042,-0.374 0.042,-0.348Z" style="fill-rule:nonzero;"/>
                    </g>
                    <g transform="matrix(6,0,0,6,56.6313,56.8619)">
                        <path d="M0.47,-0.622L0.47,-0.697L0.12,-0.697L0.054,-0.329L0.127,-0.325C0.144,-0.345 0.163,-0.361 0.185,-0.374C0.206,-0.386 0.231,-0.392 0.259,-0.392C0.283,-0.392 0.305,-0.388 0.325,-0.38C0.344,-0.372 0.361,-0.361 0.375,-0.347C0.389,-0.332 0.4,-0.315 0.408,-0.296C0.415,-0.276 0.419,-0.254 0.419,-0.231C0.419,-0.203 0.415,-0.179 0.407,-0.158C0.399,-0.136 0.388,-0.119 0.375,-0.105C0.361,-0.091 0.345,-0.081 0.327,-0.074C0.308,-0.067 0.289,-0.063 0.269,-0.063C0.248,-0.063 0.228,-0.066 0.211,-0.073C0.193,-0.079 0.178,-0.088 0.165,-0.1C0.152,-0.111 0.141,-0.125 0.134,-0.141C0.126,-0.156 0.121,-0.173 0.12,-0.191L0.035,-0.191C0.036,-0.159 0.042,-0.13 0.054,-0.105C0.066,-0.08 0.082,-0.059 0.103,-0.042C0.124,-0.025 0.148,-0.012 0.175,-0.003C0.202,0.007 0.23,0.011 0.261,0.011C0.302,0.011 0.339,0.005 0.37,-0.009C0.401,-0.022 0.426,-0.039 0.447,-0.061C0.468,-0.083 0.483,-0.108 0.494,-0.137C0.504,-0.165 0.509,-0.194 0.509,-0.224C0.509,-0.265 0.503,-0.3 0.491,-0.331C0.479,-0.361 0.463,-0.386 0.442,-0.407C0.421,-0.427 0.397,-0.442 0.369,-0.452C0.341,-0.462 0.311,-0.467 0.28,-0.467C0.256,-0.467 0.232,-0.463 0.208,-0.455C0.183,-0.446 0.163,-0.433 0.148,-0.416L0.146,-0.418L0.184,-0.622L0.47,-0.622Z" style="fill-rule:nonzero;"/>
                    </g>
                    <g transform="matrix(6,0,0,6,40.6411,66.3306)">
                        <path d="M0.58,-0.499L0.675,-0.499C0.67,-0.537 0.658,-0.571 0.641,-0.6C0.624,-0.628 0.602,-0.653 0.576,-0.672C0.55,-0.691 0.52,-0.706 0.487,-0.716C0.454,-0.726 0.418,-0.731 0.381,-0.731C0.326,-0.731 0.278,-0.721 0.236,-0.702C0.193,-0.682 0.158,-0.655 0.13,-0.621C0.101,-0.587 0.08,-0.547 0.065,-0.502C0.05,-0.456 0.043,-0.407 0.043,-0.355C0.043,-0.303 0.05,-0.254 0.064,-0.209C0.077,-0.164 0.098,-0.124 0.125,-0.091C0.152,-0.058 0.187,-0.032 0.228,-0.013C0.269,0.007 0.318,0.016 0.373,0.016C0.464,0.016 0.536,-0.009 0.589,-0.059C0.642,-0.109 0.673,-0.179 0.682,-0.269L0.587,-0.269C0.585,-0.24 0.579,-0.212 0.569,-0.187C0.559,-0.162 0.545,-0.14 0.528,-0.122C0.51,-0.103 0.489,-0.089 0.465,-0.079C0.44,-0.068 0.412,-0.063 0.381,-0.063C0.338,-0.063 0.302,-0.071 0.271,-0.087C0.24,-0.103 0.215,-0.125 0.196,-0.152C0.176,-0.179 0.161,-0.21 0.152,-0.247C0.143,-0.283 0.138,-0.321 0.138,-0.362C0.138,-0.399 0.143,-0.435 0.152,-0.47C0.161,-0.505 0.176,-0.536 0.196,-0.563C0.215,-0.59 0.24,-0.611 0.271,-0.627C0.301,-0.643 0.337,-0.651 0.38,-0.651C0.43,-0.651 0.473,-0.638 0.51,-0.613C0.546,-0.588 0.569,-0.55 0.58,-0.499Z" style="fill-rule:nonzero;"/>
                    </g>
                    <g transform="matrix(6,0,0,6,44.9731,66.3306)">
                        <path d="M0.423,-0.308L0.126,-0.308C0.127,-0.328 0.132,-0.347 0.139,-0.365C0.146,-0.382 0.156,-0.398 0.169,-0.411C0.182,-0.424 0.197,-0.435 0.215,-0.443C0.232,-0.45 0.252,-0.454 0.274,-0.454C0.295,-0.454 0.315,-0.45 0.333,-0.443C0.35,-0.435 0.366,-0.425 0.379,-0.412C0.392,-0.399 0.402,-0.383 0.41,-0.365C0.417,-0.347 0.422,-0.328 0.423,-0.308ZM0.505,-0.164L0.421,-0.164C0.414,-0.13 0.399,-0.105 0.376,-0.088C0.353,-0.071 0.323,-0.063 0.287,-0.063C0.259,-0.063 0.235,-0.068 0.214,-0.077C0.193,-0.086 0.176,-0.099 0.163,-0.115C0.15,-0.13 0.14,-0.148 0.134,-0.169C0.128,-0.189 0.125,-0.21 0.126,-0.233L0.513,-0.233C0.514,-0.264 0.511,-0.297 0.505,-0.332C0.498,-0.367 0.485,-0.399 0.467,-0.428C0.448,-0.457 0.424,-0.482 0.394,-0.501C0.363,-0.52 0.325,-0.529 0.279,-0.529C0.244,-0.529 0.211,-0.522 0.182,-0.509C0.152,-0.496 0.126,-0.477 0.105,-0.453C0.083,-0.429 0.066,-0.401 0.054,-0.368C0.042,-0.335 0.036,-0.299 0.036,-0.26C0.037,-0.221 0.043,-0.184 0.054,-0.151C0.064,-0.118 0.079,-0.089 0.1,-0.065C0.121,-0.041 0.146,-0.022 0.177,-0.009C0.207,0.004 0.243,0.011 0.284,0.011C0.343,0.011 0.391,-0.004 0.43,-0.033C0.469,-0.062 0.494,-0.106 0.505,-0.164Z" style="fill-rule:nonzero;"/>
                    </g>
                    <g transform="matrix(6,0,0,6,48.1951,66.3306)">
                        <rect x="0.069" y="-0.714" width="0.085" height="0.714"/>
                    </g>
                    <g transform="matrix(6,0,0,6,49.5271,66.3306)">
                        <rect x="0.069" y="-0.714" width="0.085" height="0.714"/>
                    </g>
                    <g transform="matrix(6,0,0,6,52.5271,66.3306)">
                        <path d="M0.415,-0.351L0.503,-0.351C0.5,-0.382 0.492,-0.408 0.479,-0.431C0.466,-0.453 0.45,-0.471 0.431,-0.486C0.411,-0.501 0.388,-0.511 0.363,-0.519C0.337,-0.526 0.309,-0.529 0.28,-0.529C0.239,-0.529 0.204,-0.522 0.173,-0.508C0.142,-0.493 0.117,-0.474 0.097,-0.449C0.076,-0.424 0.061,-0.394 0.051,-0.361C0.041,-0.327 0.036,-0.291 0.036,-0.252C0.036,-0.213 0.041,-0.178 0.052,-0.146C0.062,-0.113 0.077,-0.085 0.098,-0.062C0.118,-0.039 0.143,-0.021 0.174,-0.008C0.204,0.005 0.239,0.011 0.278,0.011C0.344,0.011 0.396,-0.006 0.435,-0.041C0.473,-0.076 0.497,-0.125 0.506,-0.189L0.419,-0.189C0.414,-0.149 0.399,-0.118 0.376,-0.096C0.352,-0.074 0.319,-0.063 0.277,-0.063C0.25,-0.063 0.227,-0.068 0.208,-0.079C0.189,-0.09 0.173,-0.104 0.161,-0.122C0.149,-0.139 0.14,-0.159 0.135,-0.182C0.129,-0.205 0.126,-0.228 0.126,-0.252C0.126,-0.278 0.129,-0.303 0.134,-0.328C0.139,-0.352 0.148,-0.373 0.161,-0.392C0.173,-0.411 0.189,-0.426 0.21,-0.437C0.231,-0.448 0.256,-0.454 0.287,-0.454C0.323,-0.454 0.352,-0.445 0.373,-0.427C0.394,-0.409 0.408,-0.384 0.415,-0.351Z" style="fill-rule:nonzero;"/>
                    </g>
                    <g transform="matrix(6,0,0,6,55.7491,66.3306)">
                        <path d="M0.126,-0.258C0.126,-0.289 0.13,-0.317 0.139,-0.342C0.147,-0.366 0.158,-0.386 0.173,-0.403C0.188,-0.42 0.205,-0.432 0.225,-0.441C0.244,-0.45 0.265,-0.454 0.287,-0.454C0.309,-0.454 0.33,-0.45 0.35,-0.441C0.369,-0.432 0.386,-0.42 0.401,-0.403C0.416,-0.386 0.427,-0.366 0.436,-0.342C0.444,-0.317 0.448,-0.289 0.448,-0.258C0.448,-0.227 0.444,-0.199 0.436,-0.175C0.427,-0.15 0.416,-0.13 0.401,-0.114C0.386,-0.097 0.369,-0.085 0.35,-0.076C0.33,-0.067 0.309,-0.063 0.287,-0.063C0.265,-0.063 0.244,-0.067 0.225,-0.076C0.205,-0.085 0.188,-0.097 0.173,-0.114C0.158,-0.13 0.147,-0.15 0.139,-0.175C0.13,-0.199 0.126,-0.227 0.126,-0.258ZM0.036,-0.258C0.036,-0.22 0.041,-0.185 0.052,-0.152C0.063,-0.119 0.079,-0.091 0.1,-0.067C0.121,-0.042 0.148,-0.023 0.179,-0.01C0.21,0.004 0.246,0.011 0.287,0.011C0.328,0.011 0.365,0.004 0.396,-0.01C0.427,-0.023 0.453,-0.042 0.474,-0.067C0.495,-0.091 0.511,-0.119 0.522,-0.152C0.533,-0.185 0.538,-0.22 0.538,-0.258C0.538,-0.296 0.533,-0.331 0.522,-0.365C0.511,-0.398 0.495,-0.426 0.474,-0.451C0.453,-0.475 0.427,-0.494 0.396,-0.508C0.365,-0.522 0.328,-0.529 0.287,-0.529C0.246,-0.529 0.21,-0.522 0.179,-0.508C0.148,-0.494 0.121,-0.475 0.1,-0.451C0.079,-0.426 0.063,-0.398 0.052,-0.365C0.041,-0.331 0.036,-0.296 0.036,-0.258Z" style="fill-rule:nonzero;"/>
                    </g>
                    <g transform="matrix(6,0,0,6,59.1931,66.3306)">
                        <path d="M0.492,-0L0.492,-0.517L0.407,-0.517L0.407,-0.225C0.407,-0.202 0.404,-0.18 0.398,-0.161C0.391,-0.141 0.382,-0.124 0.369,-0.109C0.356,-0.094 0.341,-0.083 0.322,-0.075C0.303,-0.067 0.28,-0.063 0.254,-0.063C0.221,-0.063 0.196,-0.072 0.177,-0.091C0.158,-0.11 0.149,-0.135 0.149,-0.167L0.149,-0.517L0.064,-0.517L0.064,-0.177C0.064,-0.149 0.067,-0.124 0.073,-0.101C0.078,-0.078 0.088,-0.058 0.102,-0.041C0.116,-0.024 0.134,-0.012 0.157,-0.003C0.18,0.007 0.208,0.011 0.242,0.011C0.28,0.011 0.313,0.003 0.341,-0.012C0.369,-0.027 0.392,-0.05 0.41,-0.082L0.412,-0.082L0.412,-0L0.492,-0Z" style="fill-rule:nonzero;"/>
                    </g>
                    <g transform="matrix(6,0,0,6,62.5291,66.3306)">
                        <path d="M0.064,-0.517L0.064,-0L0.149,-0L0.149,-0.292C0.149,-0.315 0.152,-0.337 0.159,-0.357C0.165,-0.376 0.174,-0.393 0.187,-0.408C0.2,-0.423 0.216,-0.434 0.235,-0.442C0.254,-0.45 0.276,-0.454 0.302,-0.454C0.335,-0.454 0.36,-0.445 0.379,-0.426C0.398,-0.407 0.407,-0.382 0.407,-0.35L0.407,-0L0.492,-0L0.492,-0.34C0.492,-0.368 0.489,-0.393 0.484,-0.417C0.478,-0.44 0.468,-0.459 0.454,-0.476C0.44,-0.493 0.422,-0.506 0.399,-0.515C0.376,-0.524 0.348,-0.529 0.314,-0.529C0.237,-0.529 0.181,-0.498 0.146,-0.435L0.144,-0.435L0.144,-0.517L0.064,-0.517Z" style="fill-rule:nonzero;"/>
                    </g>
                    <g transform="matrix(6,0,0,6,65.8651,66.3306)">
                        <path d="M0.182,-0.517L0.182,-0.672L0.097,-0.672L0.097,-0.517L0.009,-0.517L0.009,-0.442L0.097,-0.442L0.097,-0.113C0.097,-0.089 0.099,-0.07 0.104,-0.055C0.109,-0.04 0.116,-0.029 0.126,-0.021C0.135,-0.013 0.148,-0.008 0.164,-0.005C0.179,-0.002 0.198,-0 0.22,-0L0.285,-0L0.285,-0.075L0.246,-0.075C0.233,-0.075 0.222,-0.076 0.214,-0.077C0.205,-0.078 0.199,-0.08 0.194,-0.083C0.189,-0.086 0.186,-0.091 0.185,-0.097C0.183,-0.103 0.182,-0.111 0.182,-0.121L0.182,-0.442L0.285,-0.442L0.285,-0.517L0.182,-0.517Z" style="fill-rule:nonzero;"/>
                    </g>
                    <g transform="matrix(6,0,0,6,67.7551,66.3306)">
                        <path d="M0.116,-0.163L0.031,-0.163C0.032,-0.131 0.039,-0.104 0.051,-0.082C0.063,-0.059 0.079,-0.041 0.099,-0.028C0.119,-0.014 0.142,-0.004 0.168,0.002C0.194,0.008 0.221,0.011 0.25,0.011C0.276,0.011 0.302,0.008 0.329,0.004C0.355,-0.002 0.379,-0.01 0.4,-0.023C0.421,-0.036 0.438,-0.052 0.451,-0.073C0.464,-0.094 0.47,-0.12 0.47,-0.151C0.47,-0.176 0.465,-0.196 0.456,-0.213C0.446,-0.23 0.433,-0.244 0.418,-0.255C0.402,-0.266 0.384,-0.274 0.364,-0.281C0.343,-0.288 0.322,-0.293 0.301,-0.298C0.281,-0.303 0.261,-0.307 0.241,-0.312C0.221,-0.316 0.203,-0.321 0.187,-0.328C0.171,-0.334 0.158,-0.342 0.148,-0.352C0.137,-0.361 0.132,-0.373 0.132,-0.388C0.132,-0.401 0.135,-0.412 0.142,-0.421C0.149,-0.429 0.157,-0.436 0.168,-0.441C0.179,-0.446 0.191,-0.449 0.204,-0.451C0.217,-0.453 0.229,-0.454 0.242,-0.454C0.256,-0.454 0.27,-0.452 0.284,-0.45C0.297,-0.447 0.31,-0.442 0.321,-0.435C0.332,-0.428 0.342,-0.42 0.349,-0.409C0.356,-0.398 0.361,-0.384 0.362,-0.367L0.447,-0.367C0.445,-0.398 0.438,-0.425 0.427,-0.446C0.416,-0.467 0.401,-0.483 0.382,-0.496C0.363,-0.508 0.341,-0.517 0.316,-0.522C0.291,-0.527 0.264,-0.529 0.235,-0.529C0.212,-0.529 0.19,-0.526 0.167,-0.521C0.143,-0.515 0.123,-0.506 0.105,-0.495C0.086,-0.483 0.071,-0.468 0.06,-0.449C0.048,-0.43 0.042,-0.408 0.042,-0.382C0.042,-0.349 0.05,-0.323 0.067,-0.304C0.084,-0.285 0.105,-0.271 0.13,-0.261C0.155,-0.25 0.182,-0.242 0.211,-0.237C0.24,-0.231 0.268,-0.225 0.293,-0.218C0.318,-0.211 0.338,-0.201 0.355,-0.19C0.372,-0.179 0.38,-0.162 0.38,-0.14C0.38,-0.124 0.376,-0.111 0.368,-0.101C0.36,-0.09 0.35,-0.082 0.338,-0.077C0.325,-0.072 0.312,-0.068 0.297,-0.066C0.282,-0.064 0.268,-0.063 0.255,-0.063C0.238,-0.063 0.221,-0.065 0.205,-0.068C0.188,-0.071 0.173,-0.077 0.161,-0.085C0.148,-0.092 0.137,-0.102 0.129,-0.116C0.121,-0.129 0.117,-0.144 0.116,-0.163Z" style="fill-rule:nonzero;"/>
                    </g>
                    <g transform="matrix(6,0,0,6,20.0594,47.7213)">
                        <path d="M0.132,-0.349C0.132,-0.366 0.132,-0.386 0.133,-0.407C0.133,-0.428 0.135,-0.448 0.138,-0.47C0.141,-0.491 0.145,-0.511 0.151,-0.531C0.156,-0.551 0.165,-0.569 0.176,-0.584C0.187,-0.599 0.2,-0.611 0.217,-0.62C0.234,-0.629 0.254,-0.634 0.278,-0.634C0.302,-0.634 0.322,-0.629 0.339,-0.62C0.356,-0.611 0.37,-0.599 0.381,-0.584C0.392,-0.569 0.4,-0.551 0.406,-0.531C0.411,-0.511 0.416,-0.491 0.419,-0.47C0.422,-0.448 0.423,-0.428 0.424,-0.407L0.424,-0.349C0.424,-0.322 0.423,-0.293 0.422,-0.26C0.42,-0.227 0.415,-0.196 0.406,-0.167C0.397,-0.137 0.382,-0.113 0.362,-0.093C0.342,-0.073 0.314,-0.063 0.278,-0.063C0.242,-0.063 0.214,-0.073 0.194,-0.093C0.174,-0.113 0.16,-0.137 0.151,-0.167C0.141,-0.196 0.136,-0.227 0.135,-0.26C0.133,-0.293 0.132,-0.322 0.132,-0.349ZM0.042,-0.348C0.042,-0.322 0.043,-0.295 0.044,-0.267C0.045,-0.239 0.049,-0.212 0.054,-0.185C0.059,-0.158 0.067,-0.133 0.077,-0.11C0.087,-0.086 0.101,-0.065 0.118,-0.047C0.135,-0.029 0.157,-0.015 0.184,-0.005C0.21,0.006 0.241,0.011 0.278,0.011C0.315,0.011 0.347,0.006 0.373,-0.005C0.399,-0.015 0.421,-0.029 0.438,-0.047C0.455,-0.065 0.469,-0.086 0.479,-0.11C0.489,-0.133 0.497,-0.158 0.502,-0.185C0.507,-0.212 0.511,-0.239 0.512,-0.267C0.513,-0.295 0.514,-0.322 0.514,-0.348C0.514,-0.374 0.513,-0.401 0.512,-0.429C0.511,-0.457 0.507,-0.484 0.502,-0.511C0.497,-0.538 0.489,-0.563 0.479,-0.587C0.469,-0.611 0.455,-0.632 0.438,-0.65C0.421,-0.668 0.399,-0.682 0.373,-0.693C0.346,-0.704 0.315,-0.709 0.278,-0.709C0.241,-0.709 0.21,-0.704 0.184,-0.693C0.157,-0.682 0.135,-0.668 0.118,-0.65C0.101,-0.632 0.087,-0.611 0.077,-0.587C0.067,-0.563 0.059,-0.538 0.054,-0.511C0.049,-0.484 0.045,-0.457 0.044,-0.429C0.043,-0.401 0.042,-0.374 0.042,-0.348Z" style="fill-rule:nonzero;"/>
                    </g>
                    <g transform="matrix(6,0,0,6,20.0594,29.6013)">
                        <path d="M0.47,-0.622L0.47,-0.697L0.12,-0.697L0.054,-0.329L0.127,-0.325C0.144,-0.345 0.163,-0.361 0.185,-0.374C0.206,-0.386 0.231,-0.392 0.259,-0.392C0.283,-0.392 0.305,-0.388 0.325,-0.38C0.344,-0.372 0.361,-0.361 0.375,-0.347C0.389,-0.332 0.4,-0.315 0.408,-0.296C0.415,-0.276 0.419,-0.254 0.419,-0.231C0.419,-0.203 0.415,-0.179 0.407,-0.158C0.399,-0.136 0.388,-0.119 0.375,-0.105C0.361,-0.091 0.345,-0.081 0.327,-0.074C0.308,-0.067 0.289,-0.063 0.269,-0.063C0.248,-0.063 0.228,-0.066 0.211,-0.073C0.193,-0.079 0.178,-0.088 0.165,-0.1C0.152,-0.111 0.141,-0.125 0.134,-0.141C0.126,-0.156 0.121,-0.173 0.12,-0.191L0.035,-0.191C0.036,-0.159 0.042,-0.13 0.054,-0.105C0.066,-0.08 0.082,-0.059 0.103,-0.042C0.124,-0.025 0.148,-0.012 0.175,-0.003C0.202,0.007 0.23,0.011 0.261,0.011C0.302,0.011 0.339,0.005 0.37,-0.009C0.401,-0.022 0.426,-0.039 0.447,-0.061C0.468,-0.083 0.483,-0.108 0.494,-0.137C0.504,-0.165 0.509,-0.194 0.509,-0.224C0.509,-0.265 0.503,-0.3 0.491,-0.331C0.479,-0.361 0.463,-0.386 0.442,-0.407C0.421,-0.427 0.397,-0.442 0.369,-0.452C0.341,-0.462 0.311,-0.467 0.28,-0.467C0.256,-0.467 0.232,-0.463 0.208,-0.455C0.183,-0.446 0.163,-0.433 0.148,-0.416L0.146,-0.418L0.184,-0.622L0.47,-0.622Z" style="fill-rule:nonzero;"/>
                    </g>
                    <g transform="matrix(6,0,0,6,16.7156,11.4813)">
                        <path d="M0.356,-0L0.356,-0.709L0.291,-0.709C0.286,-0.682 0.278,-0.66 0.265,-0.643C0.252,-0.626 0.237,-0.612 0.219,-0.602C0.2,-0.592 0.18,-0.585 0.157,-0.582C0.134,-0.578 0.111,-0.576 0.087,-0.576L0.087,-0.508L0.271,-0.508L0.271,-0L0.356,-0Z" style="fill-rule:nonzero;"/>
                    </g>
                    <g transform="matrix(6,0,0,6,20.0516,11.4813)">
                        <path d="M0.132,-0.349C0.132,-0.366 0.132,-0.386 0.133,-0.407C0.133,-0.428 0.135,-0.448 0.138,-0.47C0.141,-0.491 0.145,-0.511 0.151,-0.531C0.156,-0.551 0.165,-0.569 0.176,-0.584C0.187,-0.599 0.2,-0.611 0.217,-0.62C0.234,-0.629 0.254,-0.634 0.278,-0.634C0.302,-0.634 0.322,-0.629 0.339,-0.62C0.356,-0.611 0.37,-0.599 0.381,-0.584C0.392,-0.569 0.4,-0.551 0.406,-0.531C0.411,-0.511 0.416,-0.491 0.419,-0.47C0.422,-0.448 0.423,-0.428 0.424,-0.407L0.424,-0.349C0.424,-0.322 0.423,-0.293 0.422,-0.26C0.42,-0.227 0.415,-0.196 0.406,-0.167C0.397,-0.137 0.382,-0.113 0.362,-0.093C0.342,-0.073 0.314,-0.063 0.278,-0.063C0.242,-0.063 0.214,-0.073 0.194,-0.093C0.174,-0.113 0.16,-0.137 0.151,-0.167C0.141,-0.196 0.136,-0.227 0.135,-0.26C0.133,-0.293 0.132,-0.322 0.132,-0.349ZM0.042,-0.348C0.042,-0.322 0.043,-0.295 0.044,-0.267C0.045,-0.239 0.049,-0.212 0.054,-0.185C0.059,-0.158 0.067,-0.133 0.077,-0.11C0.087,-0.086 0.101,-0.065 0.118,-0.047C0.135,-0.029 0.157,-0.015 0.184,-0.005C0.21,0.006 0.241,0.011 0.278,0.011C0.315,0.011 0.347,0.006 0.373,-0.005C0.399,-0.015 0.421,-0.029 0.438,-0.047C0.455,-0.065 0.469,-0.086 0.479,-0.11C0.489,-0.133 0.497,-0.158 0.502,-0.185C0.507,-0.212 0.511,-0.239 0.512,-0.267C0.513,-0.295 0.514,-0.322 0.514,-0.348C0.514,-0.374 0.513,-0.401 0.512,-0.429C0.511,-0.457 0.507,-0.484 0.502,-0.511C0.497,-0.538 0.489,-0.563 0.479,-0.587C0.469,-0.611 0.455,-0.632 0.438,-0.65C0.421,-0.668 0.399,-0.682 0.373,-0.693C0.346,-0.704 0.315,-0.709 0.278,-0.709C0.241,-0.709 0.21,-0.704 0.184,-0.693C0.157,-0.682 0.135,-0.668 0.118,-0.65C0.101,-0.632 0.087,-0.611 0.077,-0.587C0.067,-0.563 0.059,-0.538 0.054,-0.511C0.049,-0.484 0.045,-0.457 0.044,-0.429C0.043,-0.401 0.042,-0.374 0.042,-0.348Z" style="fill-rule:nonzero;"/>
                    </g>
                    <g transform="matrix(0,-1,1,0,0,0)">
                        <g transform="matrix(6,0,0,6,-40.664,11.4812)">
                            <path d="M0.078,-0.714L0.078,-0L0.173,-0L0.173,-0.327L0.501,-0.327L0.501,-0.407L0.173,-0.407L0.173,-0.634L0.547,-0.634L0.547,-0.714L0.078,-0.714Z" style="fill-rule:nonzero;"/>
                        </g>
                        <g transform="matrix(6,0,0,6,-37.22,11.4812)">
                            <path d="M0.061,-0.517L0.061,-0L0.146,-0L0.146,-0.23C0.146,-0.263 0.149,-0.293 0.156,-0.319C0.163,-0.344 0.173,-0.366 0.188,-0.384C0.203,-0.402 0.222,-0.416 0.246,-0.425C0.27,-0.434 0.299,-0.439 0.333,-0.439L0.333,-0.529C0.287,-0.53 0.249,-0.521 0.219,-0.501C0.189,-0.481 0.164,-0.45 0.143,-0.408L0.141,-0.408L0.141,-0.517L0.061,-0.517Z" style="fill-rule:nonzero;"/>
                        </g>
                        <g transform="matrix(6,0,0,6,-35.222,11.4812)">
                            <path d="M0.423,-0.308L0.126,-0.308C0.127,-0.328 0.132,-0.347 0.139,-0.365C0.146,-0.382 0.156,-0.398 0.169,-0.411C0.182,-0.424 0.197,-0.435 0.215,-0.443C0.232,-0.45 0.252,-0.454 0.274,-0.454C0.295,-0.454 0.315,-0.45 0.333,-0.443C0.35,-0.435 0.366,-0.425 0.379,-0.412C0.392,-0.399 0.402,-0.383 0.41,-0.365C0.417,-0.347 0.422,-0.328 0.423,-0.308ZM0.505,-0.164L0.421,-0.164C0.414,-0.13 0.399,-0.105 0.376,-0.088C0.353,-0.071 0.323,-0.063 0.287,-0.063C0.259,-0.063 0.235,-0.068 0.214,-0.077C0.193,-0.086 0.176,-0.099 0.163,-0.115C0.15,-0.13 0.14,-0.148 0.134,-0.169C0.128,-0.189 0.125,-0.21 0.126,-0.233L0.513,-0.233C0.514,-0.264 0.511,-0.297 0.505,-0.332C0.498,-0.367 0.485,-0.399 0.467,-0.428C0.448,-0.457 0.424,-0.482 0.394,-0.501C0.363,-0.52 0.325,-0.529 0.279,-0.529C0.244,-0.529 0.211,-0.522 0.182,-0.509C0.152,-0.496 0.126,-0.477 0.105,-0.453C0.083,-0.429 0.066,-0.401 0.054,-0.368C0.042,-0.335 0.036,-0.299 0.036,-0.26C0.037,-0.221 0.043,-0.184 0.054,-0.151C0.064,-0.118 0.079,-0.089 0.1,-0.065C0.121,-0.041 0.146,-0.022 0.177,-0.009C0.207,0.004 0.243,0.011 0.284,0.011C0.343,0.011 0.391,-0.004 0.43,-0.033C0.469,-0.062 0.494,-0.106 0.505,-0.164Z" style="fill-rule:nonzero;"/>
                        </g>
                        <g transform="matrix(6,0,0,6,-32,11.4812)">
                            <path d="M0.126,-0.254C0.126,-0.279 0.129,-0.304 0.134,-0.328C0.139,-0.352 0.148,-0.373 0.16,-0.392C0.172,-0.411 0.188,-0.426 0.208,-0.437C0.228,-0.448 0.252,-0.454 0.281,-0.454C0.31,-0.454 0.335,-0.448 0.356,-0.438C0.377,-0.427 0.394,-0.412 0.407,-0.394C0.42,-0.376 0.429,-0.355 0.435,-0.332C0.441,-0.308 0.444,-0.283 0.444,-0.258C0.444,-0.234 0.441,-0.21 0.436,-0.187C0.43,-0.164 0.421,-0.143 0.408,-0.125C0.395,-0.106 0.379,-0.091 0.359,-0.08C0.339,-0.069 0.315,-0.063 0.286,-0.063C0.259,-0.063 0.235,-0.068 0.215,-0.079C0.194,-0.09 0.178,-0.104 0.165,-0.122C0.152,-0.14 0.142,-0.161 0.136,-0.184C0.129,-0.206 0.126,-0.23 0.126,-0.254ZM0.526,0.197L0.526,-0.517L0.441,-0.517L0.441,-0.448L0.439,-0.448C0.43,-0.463 0.418,-0.476 0.405,-0.487C0.391,-0.497 0.376,-0.505 0.361,-0.512C0.346,-0.518 0.33,-0.522 0.315,-0.525C0.3,-0.528 0.285,-0.529 0.272,-0.529C0.233,-0.529 0.198,-0.522 0.169,-0.508C0.139,-0.493 0.114,-0.474 0.095,-0.45C0.075,-0.425 0.06,-0.397 0.051,-0.364C0.041,-0.331 0.036,-0.297 0.036,-0.26C0.036,-0.223 0.041,-0.189 0.051,-0.156C0.061,-0.123 0.076,-0.095 0.096,-0.07C0.115,-0.045 0.14,-0.026 0.17,-0.011C0.199,0.004 0.234,0.011 0.274,0.011C0.31,0.011 0.343,0.005 0.373,-0.008C0.403,-0.021 0.425,-0.041 0.439,-0.07L0.441,-0.07L0.441,0.197L0.526,0.197Z" style="fill-rule:nonzero;"/>
                        </g>
                        <g transform="matrix(6,0,0,6,-28.442,11.4812)">
                            <path d="M0.492,-0L0.492,-0.517L0.407,-0.517L0.407,-0.225C0.407,-0.202 0.404,-0.18 0.398,-0.161C0.391,-0.141 0.382,-0.124 0.369,-0.109C0.356,-0.094 0.341,-0.083 0.322,-0.075C0.303,-0.067 0.28,-0.063 0.254,-0.063C0.221,-0.063 0.196,-0.072 0.177,-0.091C0.158,-0.11 0.149,-0.135 0.149,-0.167L0.149,-0.517L0.064,-0.517L0.064,-0.177C0.064,-0.149 0.067,-0.124 0.073,-0.101C0.078,-0.078 0.088,-0.058 0.102,-0.041C0.116,-0.024 0.134,-0.012 0.157,-0.003C0.18,0.007 0.208,0.011 0.242,0.011C0.28,0.011 0.313,0.003 0.341,-0.012C0.369,-0.027 0.392,-0.05 0.41,-0.082L0.412,-0.082L0.412,-0L0.492,-0Z" style="fill-rule:nonzero;"/>
                        </g>
                        <g transform="matrix(6,0,0,6,-25.106,11.4812)">
                            <path d="M0.423,-0.308L0.126,-0.308C0.127,-0.328 0.132,-0.347 0.139,-0.365C0.146,-0.382 0.156,-0.398 0.169,-0.411C0.182,-0.424 0.197,-0.435 0.215,-0.443C0.232,-0.45 0.252,-0.454 0.274,-0.454C0.295,-0.454 0.315,-0.45 0.333,-0.443C0.35,-0.435 0.366,-0.425 0.379,-0.412C0.392,-0.399 0.402,-0.383 0.41,-0.365C0.417,-0.347 0.422,-0.328 0.423,-0.308ZM0.505,-0.164L0.421,-0.164C0.414,-0.13 0.399,-0.105 0.376,-0.088C0.353,-0.071 0.323,-0.063 0.287,-0.063C0.259,-0.063 0.235,-0.068 0.214,-0.077C0.193,-0.086 0.176,-0.099 0.163,-0.115C0.15,-0.13 0.14,-0.148 0.134,-0.169C0.128,-0.189 0.125,-0.21 0.126,-0.233L0.513,-0.233C0.514,-0.264 0.511,-0.297 0.505,-0.332C0.498,-0.367 0.485,-0.399 0.467,-0.428C0.448,-0.457 0.424,-0.482 0.394,-0.501C0.363,-0.52 0.325,-0.529 0.279,-0.529C0.244,-0.529 0.211,-0.522 0.182,-0.509C0.152,-0.496 0.126,-0.477 0.105,-0.453C0.083,-0.429 0.066,-0.401 0.054,-0.368C0.042,-0.335 0.036,-0.299 0.036,-0.26C0.037,-0.221 0.043,-0.184 0.054,-0.151C0.064,-0.118 0.079,-0.089 0.1,-0.065C0.121,-0.041 0.146,-0.022 0.177,-0.009C0.207,0.004 0.243,0.011 0.284,0.011C0.343,0.011 0.391,-0.004 0.43,-0.033C0.469,-0.062 0.494,-0.106 0.505,-0.164Z" style="fill-rule:nonzero;"/>
                        </g>
                        <g transform="matrix(6,0,0,6,-21.884,11.4812)">
                            <path d="M0.064,-0.517L0.064,-0L0.149,-0L0.149,-0.292C0.149,-0.315 0.152,-0.337 0.159,-0.357C0.165,-0.376 0.174,-0.393 0.187,-0.408C0.2,-0.423 0.216,-0.434 0.235,-0.442C0.254,-0.45 0.276,-0.454 0.302,-0.454C0.335,-0.454 0.36,-0.445 0.379,-0.426C0.398,-0.407 0.407,-0.382 0.407,-0.35L0.407,-0L0.492,-0L0.492,-0.34C0.492,-0.368 0.489,-0.393 0.484,-0.417C0.478,-0.44 0.468,-0.459 0.454,-0.476C0.44,-0.493 0.422,-0.506 0.399,-0.515C0.376,-0.524 0.348,-0.529 0.314,-0.529C0.237,-0.529 0.181,-0.498 0.146,-0.435L0.144,-0.435L0.144,-0.517L0.064,-0.517Z" style="fill-rule:nonzero;"/>
                        </g>
                        <g transform="matrix(6,0,0,6,-18.548,11.4812)">
                            <path d="M0.415,-0.351L0.503,-0.351C0.5,-0.382 0.492,-0.408 0.479,-0.431C0.466,-0.453 0.45,-0.471 0.431,-0.486C0.411,-0.501 0.388,-0.511 0.363,-0.519C0.337,-0.526 0.309,-0.529 0.28,-0.529C0.239,-0.529 0.204,-0.522 0.173,-0.508C0.142,-0.493 0.117,-0.474 0.097,-0.449C0.076,-0.424 0.061,-0.394 0.051,-0.361C0.041,-0.327 0.036,-0.291 0.036,-0.252C0.036,-0.213 0.041,-0.178 0.052,-0.146C0.062,-0.113 0.077,-0.085 0.098,-0.062C0.118,-0.039 0.143,-0.021 0.174,-0.008C0.204,0.005 0.239,0.011 0.278,0.011C0.344,0.011 0.396,-0.006 0.435,-0.041C0.473,-0.076 0.497,-0.125 0.506,-0.189L0.419,-0.189C0.414,-0.149 0.399,-0.118 0.376,-0.096C0.352,-0.074 0.319,-0.063 0.277,-0.063C0.25,-0.063 0.227,-0.068 0.208,-0.079C0.189,-0.09 0.173,-0.104 0.161,-0.122C0.149,-0.139 0.14,-0.159 0.135,-0.182C0.129,-0.205 0.126,-0.228 0.126,-0.252C0.126,-0.278 0.129,-0.303 0.134,-0.328C0.139,-0.352 0.148,-0.373 0.161,-0.392C0.173,-0.411 0.189,-0.426 0.21,-0.437C0.231,-0.448 0.256,-0.454 0.287,-0.454C0.323,-0.454 0.352,-0.445 0.373,-0.427C0.394,-0.409 0.408,-0.384 0.415,-0.351Z" style="fill-rule:nonzero;"/>
                        </g>
                        <g transform="matrix(6,0,0,6,-15.326,11.4812)">
                            <path d="M0.267,0.069C0.257,0.094 0.247,0.116 0.238,0.133C0.228,0.15 0.217,0.165 0.206,0.176C0.194,0.187 0.181,0.195 0.167,0.2C0.152,0.205 0.136,0.207 0.117,0.207C0.107,0.207 0.097,0.206 0.087,0.205C0.077,0.204 0.067,0.201 0.058,0.198L0.058,0.12C0.065,0.123 0.074,0.126 0.084,0.129C0.093,0.131 0.101,0.132 0.108,0.132C0.125,0.132 0.14,0.128 0.152,0.12C0.163,0.111 0.172,0.099 0.178,0.084L0.213,-0.003L0.008,-0.517L0.104,-0.517L0.255,-0.094L0.257,-0.094L0.402,-0.517L0.492,-0.517L0.267,0.069Z" style="fill-rule:nonzero;"/>
                        </g>
                    </g>
                    <g transform="matrix(1,0,0,1,0.127073,0.204831)">
                        <g transform="matrix(6,0,0,6,69.2231,17.0224)">
                            <path d="M0.266,-0.373L-0.043,-0L0.065,-0L0.309,-0.302L0.453,-0L0.551,-0L0.37,-0.36L0.664,-0.714L0.557,-0.714L0.328,-0.432L0.196,-0.714L0.094,-0.714L0.266,-0.373Z" style="fill-rule:nonzero;"/>
                        </g>
                        <g transform="matrix(4.2,0,0,4.2,72.8891,17.9552)">
                            <path d="M0.221,-0.517L0.253,-0.67L0.168,-0.67L0.136,-0.517L0.049,-0.517L0.033,-0.442L0.12,-0.442L0.052,-0.121C0.051,-0.113 0.05,-0.106 0.049,-0.099C0.048,-0.092 0.047,-0.085 0.047,-0.078C0.047,-0.061 0.05,-0.048 0.057,-0.037C0.063,-0.026 0.071,-0.018 0.082,-0.012C0.092,-0.005 0.104,-0.001 0.118,0.002C0.132,0.004 0.147,0.005 0.163,0.005C0.173,0.005 0.183,0.005 0.193,0.004C0.203,0.003 0.213,0.001 0.223,-0L0.238,-0.078C0.23,-0.075 0.222,-0.073 0.214,-0.072C0.206,-0.07 0.198,-0.069 0.189,-0.069C0.176,-0.069 0.164,-0.072 0.154,-0.077C0.143,-0.082 0.138,-0.091 0.138,-0.104C0.138,-0.11 0.138,-0.116 0.139,-0.121C0.14,-0.126 0.14,-0.132 0.141,-0.138L0.205,-0.442L0.308,-0.442L0.324,-0.517L0.221,-0.517Z" style="fill-rule:nonzero;"/>
                        </g>
                    </g>
                </g>
            </g>
        </g>
    </g>
</svg>
