<?xml version="1.0" encoding="UTF-8" standalone="no"?>
<!DOCTYPE svg PUBLIC "-//W3C//DTD SVG 1.1//EN" "http://www.w3.org/Graphics/SVG/1.1/DTD/svg11.dtd">
<svg width="100%" height="100%" viewBox="0 0 438 296" version="1.1" xmlns="http://www.w3.org/2000/svg" xmlns:xlink="http://www.w3.org/1999/xlink" xml:space="preserve" xmlns:serif="http://www.serif.com/" style="fill-rule:evenodd;clip-rule:evenodd;stroke-linejoin:round;stroke-miterlimit:2;">
    <g transform="matrix(1,0,0,1,-298.516,-2981.75)">
        <g transform="matrix(1.25414,0,0,1.25414,-147.63,2714.38)">
            <text x="456.564px" y="413.332px" style="font-family:'BreeSerif-Regular', 'Bree Serif';font-size:53.157px;">MemoCell</text>
        </g>
        <g transform="matrix(0.103084,0.0219111,-0.0219111,0.103084,418.913,3132.6)">
            <g transform="matrix(1,0,0,1,-2133.33,-1600)">
                <g transform="matrix(1565.9,-331.415,-331.415,-1565.9,1328.72,1495.31)">
                    <path d="M0.012,-0.832C0.068,-0.777 0.21,-0.685 0.32,-0.484C0.437,-0.268 0.378,-0.157 0.491,-0.074C0.565,-0.019 0.631,-0.073 0.675,-0.101C0.703,-0.119 0.752,-0.192 0.776,-0.214C0.816,-0.25 0.865,-0.305 0.949,-0.287C0.974,-0.282 0.998,-0.264 1.002,-0.232C1.005,-0.206 1.013,-0.215 1.02,-0.188C1.03,-0.148 1.015,-0.137 1.029,-0.112C1.043,-0.088 1.051,-0.053 1.042,-0.026C1.027,0.017 1.01,0.033 1.016,0.058C1.027,0.107 1.008,0.112 1.01,0.148C1.013,0.198 1.006,0.235 0.989,0.262C0.98,0.278 0.978,0.293 0.966,0.307C0.952,0.322 0.928,0.33 0.92,0.354C0.899,0.413 0.866,0.411 0.859,0.436C0.842,0.492 0.839,0.515 0.761,0.535C0.727,0.544 0.713,0.56 0.69,0.569C0.654,0.583 0.652,0.576 0.619,0.574C0.554,0.57 0.553,0.611 0.52,0.575C0.505,0.56 0.47,0.561 0.462,0.532C0.447,0.475 0.469,0.377 0.472,0.341C0.474,0.315 0.477,0.285 0.473,0.259C0.473,0.258 0.466,0.205 0.466,0.205C0.431,0.216 0.431,0.331 0.427,0.359C0.414,0.445 0.384,0.692 0.267,0.617C0.236,0.597 0.218,0.6 0.198,0.573C0.168,0.532 0.168,0.562 0.133,0.531C0.117,0.515 0.111,0.501 0.117,0.462C0.122,0.427 0.071,0.466 0.049,0.435C0.035,0.414 0.012,0.354 -0.034,0.313C-0.048,0.3 -0.037,0.276 -0.047,0.26C-0.067,0.23 -0.093,0.195 -0.122,0.173C-0.149,0.153 -0.134,0.13 -0.143,0.098C-0.162,0.03 -0.086,0 -0.044,-0.014C0.039,-0.042 0.157,0.03 0.253,0C0.295,-0.013 0.345,-0.041 0.367,-0.111C0.378,-0.148 0.367,-0.21 0.36,-0.248C0.324,-0.444 0.231,-0.561 0.172,-0.619C0.093,-0.697 0.057,-0.729 -0.029,-0.791L0.012,-0.832Z" style="fill:url(#_Linear1);"/>
                </g>
                <g transform="matrix(4.16667,0,0,4.16667,-1111.42,-1187.09)">
                    <path d="M760.575,620.024C761.089,613.566 764.983,603.893 770.044,593.886C777.394,579.353 787.134,564.065 791.844,557.001C807.41,533.721 822.374,512.461 837.912,491.643C853.46,470.81 869.582,450.421 887.402,428.855C887.654,428.547 888.11,428.501 888.418,428.754C888.726,429.006 888.771,429.462 888.518,429.77C870.888,451.452 854.964,471.959 839.578,492.877C824.209,513.773 809.378,535.078 793.976,558.418C789.325,565.445 779.727,580.664 772.458,595.105C769.955,600.078 767.719,604.952 766.077,609.355C773.943,596.345 787.87,576.303 790.772,572.476C796.809,564.525 803.215,556.96 809.82,549.598C825.223,532.428 841.675,516.33 856.728,498.704C863.405,490.911 868.957,483.258 874.112,475.515C881.976,463.705 888.916,451.685 897.475,438.635C897.661,438.348 898.044,438.266 898.33,438.452C898.617,438.638 898.699,439.021 898.513,439.308C890.091,452.455 883.282,464.557 875.538,476.454C870.424,484.31 864.902,492.076 858.253,499.997C843.312,517.738 826.991,533.986 811.669,551.247C805.148,558.594 798.801,566.119 792.835,574.036C790.549,577.067 781.366,590.314 773.78,602.121C769.096,609.41 765.017,616.14 763.604,619.535C763.461,619.878 763.336,620.284 763.259,620.557C763.246,620.778 763.238,620.995 763.235,621.208C763.225,621.825 762.801,622.358 762.202,622.506C761.603,622.654 760.979,622.379 760.684,621.837C760.5,621.5 760.382,620.882 760.575,620.024Z" style="fill:white;"/>
                </g>
                <g transform="matrix(4.16667,0,0,4.16667,-1111.42,-1165.46)">
                    <path d="M752.984,624.932C754.392,606.285 756.468,583.178 756.702,565.326C756.927,548.169 755.246,526.938 752.634,505.227C748.69,472.449 742.621,438.58 737.758,415.965C737.216,413.445 736.697,410.594 736.219,407.697C735.275,401.984 734.318,396.124 733.759,392.291C733.502,390.525 733.395,389.205 733.163,388.572C733.042,388.312 733.154,388.004 733.413,387.883C733.672,387.762 733.98,387.874 734.101,388.133C734.464,388.765 734.969,390.103 735.428,391.971C735.553,392.482 735.652,393.038 735.761,393.625C736.861,399.53 738.085,408.776 739.563,415.577C744.446,438.232 750.544,472.162 754.512,505.001C757.146,526.801 758.841,548.121 758.624,565.351C758.338,588.008 755.094,619.122 753.994,638.87C753.895,640.661 753.81,642.356 753.746,643.941C753.994,649.558 754.227,654.137 754.429,657.067C754.462,657.538 754.155,657.965 753.698,658.084C753.241,658.203 752.764,657.98 752.564,657.553C751.747,655.818 751.558,651.008 751.791,644.235C751.458,636.799 751.098,627.523 750.748,617.843C749.794,591.498 748.909,562.16 748.829,558.813C748.291,536.169 747.473,520.897 746.089,507.212C744.462,491.121 742.046,477.224 738.321,456.122C737.261,450.073 736.006,444.576 734.607,439.134C731.592,427.404 727.906,415.926 724.03,399.769C723.93,399.356 724.184,398.939 724.597,398.839C725.01,398.739 725.427,398.993 725.527,399.406C729.491,415.532 733.243,426.982 736.319,438.689C737.759,444.168 739.05,449.704 740.149,455.797C743.937,476.949 746.412,490.877 748.064,507.011C749.469,520.735 750.274,536.054 750.816,558.765C750.895,562.112 751.775,591.438 752.722,617.772C752.809,620.191 752.896,622.584 752.984,624.932Z" style="fill:white;"/>
                </g>
                <g transform="matrix(4.16667,0,0,4.16667,-1111.42,-1538.05)">
                    <path d="M771.179,631.832C772.903,623.628 774.608,615.189 776.122,607.009C778.899,592.001 781.037,577.866 781.439,567.673C782.062,552.216 782.326,539.855 782.39,528.182C782.473,512.979 782.074,498.946 781.81,480.763C781.777,478.46 781.716,476.091 781.758,473.644C781.784,472.087 781.887,470.512 781.954,468.892C781.946,468.583 782.191,468.327 782.499,468.319C782.808,468.312 783.064,468.556 783.072,468.865C783.205,470.206 783.369,471.511 783.464,472.811C783.612,474.835 783.668,476.81 783.74,478.737C784.306,493.847 784.524,506.07 784.637,518.292C784.773,533.072 784.559,547.857 783.8,567.766C783.397,578.047 781.255,592.304 778.454,607.44C774.66,627.937 769.661,650.052 766.191,666.044C766.055,666.672 765.442,667.075 764.812,666.952C764.181,666.829 763.765,666.225 763.875,665.592C768.91,636.675 772.418,603.04 774.051,569.407C775.171,546.321 775.377,523.237 774.642,501.677C774.406,494.738 774.028,487.961 773.646,481.385C773.475,478.445 773.333,475.546 773.142,472.691C773.099,472.202 773.461,471.771 773.95,471.728C774.439,471.685 774.871,472.047 774.914,472.536C775.223,475.391 775.536,478.289 775.778,481.236C776.319,487.825 776.649,494.632 776.911,501.595C777.728,523.214 777.478,546.366 776.368,569.518C775.353,590.677 773.593,611.837 771.179,631.832Z" style="fill:white;"/>
                </g>
                <g transform="matrix(4.16667,0,0,4.16667,-1111.42,-969.232)">
                    <path d="M774.464,567.129C775.633,565.612 776.741,564.202 777.798,562.881C786.095,552.518 791.226,547.656 798.511,539.177C803.439,533.449 809.43,527.354 815.948,521.099C829.591,508.007 845.51,494.171 858.391,481.169C871.192,468.281 882.14,455.931 892.941,444.259C895.833,441.134 898.719,438.064 901.627,435.044C907.926,428.505 914.324,422.211 921.084,416.12C921.205,416.007 921.395,416.014 921.508,416.135C921.621,416.256 921.614,416.446 921.493,416.558C917.14,420.763 912.969,425.068 908.857,429.448C903.951,434.673 899.159,440.027 894.289,445.485C883.682,457.37 872.769,469.786 860.09,482.837C847.306,495.962 831.528,509.986 817.947,523.169C811.535,529.393 805.608,535.419 800.75,541.098C793.504,549.561 788.397,554.415 780.144,564.757C775.367,570.743 769.533,578.571 761.613,590.01C761.303,590.457 760.778,590.705 760.235,590.66C759.839,590.627 758.508,590.286 758.884,588.773C758.894,588.733 758.916,588.644 758.972,588.516C758.988,588.48 759.022,588.407 759.077,588.297C759.2,588.049 759.464,587.535 759.854,586.792C761.206,584.216 764.099,578.837 767.924,572.208C774.245,561.255 783.106,546.897 791.739,536.104C798.536,527.656 806.842,518.729 815.172,510.32C831.346,493.993 847.558,479.581 852.422,474.057C863.788,461.164 875.029,448.266 885.352,435.491C892.683,426.419 899.552,417.411 905.667,408.507C905.85,408.236 906.219,408.165 906.49,408.348C906.76,408.532 906.832,408.901 906.648,409.171C900.634,418.185 893.868,427.316 886.633,436.512C876.462,449.442 865.365,462.5 854.146,475.557C849.334,481.151 833.303,495.836 817.228,512.34C809.041,520.745 800.83,529.613 794.138,538.024C787.246,546.636 780.21,557.545 774.464,567.129Z" style="fill:white;"/>
                </g>
                <g transform="matrix(4.16667,0,0,4.16667,-1111.42,-1634.14)">
                    <path d="M793.889,622.902C795.658,617.095 797.185,611.573 798.234,606.579C803.145,583.238 807.755,561.337 810.953,538.946C812.655,527.03 813.79,514.965 814.671,502.482C814.885,499.455 815.155,496.414 815.341,493.333C815.35,493.017 815.613,492.768 815.928,492.776C816.244,492.784 816.493,493.047 816.485,493.363C816.51,496.462 816.54,499.528 816.442,502.573C816.04,515.139 814.667,527.256 813.014,539.235C809.915,561.687 805.239,583.627 800.341,607.022C799.219,612.373 797.556,618.325 795.632,624.583C791.651,637.531 786.55,651.803 782.85,664.784C782.689,665.347 782.11,665.681 781.542,665.539C780.973,665.396 780.621,664.828 780.746,664.255C783.917,649.706 790.005,629.773 793.826,614.628C795.017,609.911 795.987,605.663 796.574,602.194C799.409,585.469 801.662,568.603 803.279,551.676C804.411,539.833 805.192,527.959 805.718,516.086C805.944,510.991 806.143,505.898 806.261,500.804C806.269,500.31 806.676,499.915 807.17,499.923C807.664,499.931 808.058,500.338 808.051,500.832C808.01,505.942 807.923,511.055 807.739,516.167C807.313,528.082 806.472,539.991 805.354,551.873C803.756,568.853 801.511,585.772 798.687,602.551C798.095,606.067 797.118,610.374 795.914,615.154C795.293,617.624 794.61,620.222 793.889,622.902Z" style="fill:white;"/>
                </g>
                <g transform="matrix(4.16667,0,0,4.16667,-1111.42,-1798.13)">
                    <path d="M808.508,656.557C816.234,628.41 822.24,606.054 826.947,585.987C829.957,573.157 832.359,561.25 834.488,549.388C835.43,544.142 836.357,538.914 837.177,533.6C837.246,533.106 837.703,532.762 838.197,532.831C838.69,532.9 839.035,533.357 838.965,533.851C838.288,539.206 837.569,544.49 836.697,549.769C834.724,561.701 832.167,573.626 829.145,586.503C826.221,598.964 822.789,612.306 818.753,627.368C823.077,615.6 827.092,605.01 827.956,602.593C832.272,590.519 835.815,580.296 838.789,569.928C841.215,561.471 843.162,552.899 844.996,543.167C845.409,540.973 845.854,538.729 846.263,536.405C846.33,535.965 846.741,535.662 847.18,535.729C847.62,535.795 847.923,536.206 847.857,536.646C847.491,539.486 847.124,542.221 846.686,544.866C845.564,551.628 844.175,557.817 842.644,563.826C839.375,576.651 835.229,588.613 829.989,603.318C828.697,606.942 820.342,628.938 814.471,645.735C813.03,649.856 811.738,653.661 810.742,656.795L808.723,664.13C808.567,664.697 807.994,665.043 807.42,664.917C806.845,664.791 806.47,664.237 806.566,663.657C806.795,662.264 807.494,659.77 808.508,656.557Z" style="fill:white;"/>
                </g>
                <g transform="matrix(4.16667,0,0,4.16667,-1111.42,-391.27)">
                    <path d="M780.396,433.928C792.966,423.447 804.299,418.234 815.258,416.312C842.463,411.542 867.445,427.256 903.877,433.391C914.504,435.209 923.929,436.333 933.107,437.204C947.255,438.547 960.821,439.279 977.301,440.902C977.793,440.949 978.155,441.386 978.108,441.879C978.061,442.371 977.623,442.732 977.131,442.685C960.642,441.169 947.07,440.547 932.915,439.274C923.683,438.443 914.205,437.331 903.513,435.54C867.362,429.387 842.618,413.622 815.605,418.304C800.65,420.896 785.023,429.817 766.322,450.143C765.983,450.513 765.413,450.552 765.026,450.233C764.638,449.913 764.569,449.346 764.867,448.943C773.874,436.797 782.334,428.951 789.974,423.793C804.9,413.715 816.708,413.882 823.454,412.429C836.46,409.607 881.601,420.563 925.318,425.068C938.914,426.469 952.366,427.114 964.674,426.765C965.851,426.732 967.022,426.558 968.173,426.671C968.491,426.702 968.753,426.809 969.063,426.881C969.356,426.861 969.61,427.082 969.63,427.374C969.65,427.667 969.428,427.92 969.136,427.94C968.836,428.054 968.587,428.194 968.273,428.265C967.133,428.523 965.935,428.471 964.748,428.536C952.371,429.212 938.813,428.343 925.126,426.943C881.634,422.495 836.766,411.351 823.824,414.141C817.21,415.577 805.609,415.38 790.989,425.293C787.61,427.584 784.072,430.414 780.396,433.928Z" style="fill:white;"/>
                </g>
                <g transform="matrix(4.16667,0,0,4.16667,-1111.42,-748.82)">
                    <path d="M823.164,491.814C832.802,489.831 841.35,488.259 848.938,486.305C863.346,482.662 877.825,479.198 892.359,475.943C914.143,471.065 936.033,466.611 957.872,462.229C958.059,462.19 958.244,462.31 958.284,462.498C958.324,462.685 958.204,462.87 958.016,462.91C939.908,466.962 921.782,471.13 903.688,475.437C885.602,479.742 867.551,484.187 849.637,488.99C839.849,491.561 828.475,493.552 815.207,496.523C810.576,497.559 805.71,498.706 800.602,500.054C800.041,500.203 799.446,500.006 799.084,499.553C798.845,499.254 798.24,498.219 799.406,497.425C799.446,497.398 799.534,497.34 799.681,497.275C799.763,497.238 799.938,497.168 800.199,497.069C800.958,496.781 802.552,496.198 804.732,495.414C815.711,491.466 841.603,482.34 849.98,479.322C870.82,471.882 891.147,462.841 911.886,455.037C920.805,451.681 929.799,448.552 938.943,445.878C939.308,445.768 939.694,445.976 939.804,446.342C939.913,446.708 939.705,447.094 939.339,447.203C930.266,449.977 921.347,453.201 912.506,456.654C891.849,464.722 871.622,474.032 850.861,481.743C845.725,483.634 833.989,487.887 823.164,491.814Z" style="fill:white;"/>
                </g>
                <g transform="matrix(4.16667,0,0,4.16667,-1111.42,-1128.24)">
                    <path d="M839.4,553.799C850.695,544.916 866.706,532.159 881.926,519.799C897.065,507.505 911.435,495.619 919.543,488.223C919.771,488.015 920.125,488.03 920.333,488.257C920.542,488.484 920.527,488.838 920.3,489.047C910.54,498.062 891.708,513.773 873.306,528.68C849.462,547.996 826.357,565.981 824.933,566.766C824.605,566.946 824.194,566.852 823.978,566.547C823.761,566.242 823.808,565.823 824.087,565.574L869.899,524.96C873.904,521.496 877.809,517.927 881.654,514.294C887.813,508.474 893.799,502.472 899.821,496.507C908.87,487.543 917.974,478.636 927.583,470.276C927.801,470.085 928.133,470.106 928.324,470.324C928.515,470.542 928.493,470.874 928.276,471.065C918.761,479.496 909.808,488.521 900.804,497.497C894.792,503.489 888.747,509.448 882.561,515.257C878.691,518.891 874.76,522.459 870.729,525.922C868.28,528.037 860.859,534.619 852.414,542.156C848.168,545.946 843.663,549.977 839.4,553.799Z" style="fill:white;"/>
                </g>
                <g transform="matrix(4.16667,0,0,4.16667,-1111.42,-1049.01)">
                    <path d="M852.591,537.669C854.004,536.154 859.957,531.48 868.128,525.313C875.353,519.86 884.313,513.201 893.362,506.511C908.204,495.539 923.269,484.466 931.067,478.197C931.41,477.916 931.917,477.967 932.198,478.311C932.478,478.654 932.427,479.161 932.084,479.442C924.788,485.508 911.086,496.057 897.14,506.635C887.863,513.671 878.482,520.723 870.857,526.534C876.027,523.513 881.963,520.089 888.217,516.53C907.898,505.331 930.722,492.757 942.151,486.701C942.422,486.554 942.762,486.654 942.909,486.925C943.056,487.197 942.956,487.536 942.685,487.683C931.391,493.971 908.926,507.138 889.417,518.605C871.166,529.333 855.51,538.532 854.522,539.554C854.008,540.082 853.166,540.1 852.63,539.594C852.094,539.088 852.063,538.246 852.56,537.702L852.589,537.671L852.591,537.669Z" style="fill:white;"/>
                </g>
                <g transform="matrix(4.16667,0,0,4.16667,-1111.42,-237.766)">
                    <path d="M846.571,395.36C844.843,395.082 843.109,394.809 841.395,394.544C841.062,394.493 840.79,394.253 840.697,393.929C840.609,393.619 840.673,393.349 840.873,393.114C840.96,393.011 841.221,392.772 841.737,392.781C842.08,392.787 842.823,392.892 843.838,393.076C844.57,393.208 845.454,393.382 846.435,393.583C849.978,394.141 853.499,394.714 856.772,395.256C863.54,396.377 869.243,397.366 871.859,397.822C881.246,399.457 890.532,401.476 899.76,403.727C913.583,407.1 927.281,410.974 941.059,414.63C941.501,414.747 941.766,415.2 941.649,415.643C941.533,416.085 941.079,416.35 940.637,416.233C926.855,412.637 913.141,408.867 899.325,405.512C890.133,403.28 880.897,401.223 871.551,399.577L871.53,399.573C872.681,399.902 873.83,400.239 874.977,400.581C880.791,402.315 886.565,404.194 892.324,406.061C910.057,411.812 924.672,417.36 940.22,421.98C948.445,424.424 956.938,426.566 966.288,428.414C967.805,428.714 969.35,428.974 970.905,429.311C971.561,429.453 972.207,429.633 972.869,429.793C973.068,429.824 973.204,430.012 973.173,430.211C973.141,430.41 972.953,430.546 972.754,430.515C972.073,430.461 971.401,430.426 970.732,430.347C969.145,430.16 967.596,429.873 966.066,429.606C956.631,427.955 948.085,425.8 939.804,423.394C924.217,418.866 909.593,413.295 891.832,407.585C886.08,405.736 880.314,403.875 874.509,402.16C870.645,401.018 866.765,399.941 862.859,398.974C862.333,398.844 852.757,396.625 846.571,395.36Z" style="fill:white;"/>
                </g>
                <g transform="matrix(4.16667,0,0,4.16667,-1111.42,-98.0365)">
                    <path d="M876.531,381.205C876.488,381.201 876.444,381.194 876.401,381.184C876.042,381.1 875.754,380.832 875.645,380.479C875.554,380.185 875.594,379.928 875.702,379.702C875.807,379.482 876.012,379.211 876.459,379.109C876.625,379.071 877.042,379.067 877.649,379.19C879.043,379.472 882.015,380.352 885.088,381.485L900.136,387.314C909.894,391.003 919.852,394.613 929.925,397.716C936.639,399.784 943.4,401.642 950.217,403.064C950.712,403.164 951.033,403.647 950.933,404.142C950.833,404.637 950.35,404.958 949.855,404.858C942.958,403.518 936.097,401.783 929.309,399.744C919.169,396.698 909.186,393.008 899.383,389.306L891.188,386.114C891.912,386.481 892.413,386.733 892.582,386.812C903.282,391.833 913.924,397.004 924.83,401.514C929.185,403.314 933.594,404.975 938.043,406.549C941.001,407.595 943.967,408.625 946.984,409.538C947.286,409.622 947.463,409.935 947.38,410.237C947.297,410.539 946.984,410.716 946.682,410.633C943.599,409.865 940.544,409.034 937.53,408.072C933.001,406.626 928.562,404.934 924.157,403.161C913.182,398.744 902.491,393.603 891.731,388.642C890.878,388.247 881.591,383.498 877.798,381.75C877.267,381.505 876.691,381.27 876.531,381.205Z" style="fill:white;"/>
                </g>
                <g transform="matrix(4.16667,0,0,4.16667,-1111.42,-519.978)">
                    <path d="M739.752,504.725C738.652,498.923 737.2,492.333 735.391,485.439C731.97,472.408 727.254,458.295 721.241,446.372C717.396,438.636 710.833,431.493 702.486,424.836C692.191,416.624 679.183,409.165 664.999,402.459C629.641,385.743 587.101,373.589 561.605,365.218C561.233,365.097 561.028,364.697 561.149,364.325C561.27,363.953 561.67,363.749 562.042,363.869C591.773,373.369 644.54,387.792 682.435,408.666C697.019,416.7 709.437,425.677 717.504,435.71C719.965,438.771 722.01,441.94 723.612,445.193C729.559,457.332 734.151,471.676 737.486,484.9C741.532,500.941 743.709,515.334 744.132,522.146C744.256,524.153 744.22,525.545 744.06,526.19C743.921,526.746 743.633,527.025 743.413,527.145C743.131,527.3 742.789,527.299 742.507,527.142C742.226,526.984 742.046,526.693 742.031,526.371C741.684,519 737.842,503.061 732.684,487.112C727.981,472.568 722.177,458.022 717.061,449.923C711.688,441.454 697.67,432.257 681.7,423.711C659.274,411.712 632.907,401.129 619.993,397.12C614.636,395.448 609.233,394.066 603.79,392.879C595.595,391.09 587.312,389.74 578.972,388.503C578.493,388.435 578.16,387.99 578.228,387.512C578.297,387.033 578.741,386.7 579.22,386.768C587.616,387.921 595.955,389.189 604.211,390.898C609.727,392.04 615.205,393.378 620.639,395.01C633.675,398.946 660.43,409.176 682.99,421.306C699.379,430.118 713.507,439.991 718.925,448.756C724.042,456.999 729.77,471.787 734.474,486.537C736.462,492.771 738.267,499 739.752,504.725Z" style="fill:white;"/>
                </g>
                <g transform="matrix(4.16667,0,0,4.16667,-1111.42,-1180.31)">
                    <path d="M725.491,580.977C721.574,568.491 717.901,557.157 715.609,551.077C707.557,529.647 697.199,510.032 685.232,491.533C670.738,469.127 653.816,448.417 635.795,428.064C632.242,424.052 628.635,420.066 625.043,416.039C624.417,415.337 623.746,414.67 623.178,413.918C622.928,413.586 622.739,413.234 622.513,412.884C622.193,412.538 622.213,411.997 622.559,411.677C622.905,411.356 623.446,411.376 623.767,411.722C624.052,411.926 624.339,412.093 624.606,412.321C625.203,412.833 625.712,413.439 626.256,414.006C629.373,417.256 632.414,420.561 635.43,423.871C650.749,440.685 665.136,457.903 678.083,476.056C694.263,498.741 708.097,522.972 718.312,550.059C723.752,564.542 736.978,608.758 742.743,627.544C743.881,631.253 744.726,633.965 745.162,635.25C745.242,635.488 745.329,635.722 745.368,635.826C745.543,636.122 745.604,636.476 745.531,636.819C745.438,637.256 745.14,637.622 744.731,637.801C744.567,637.873 743.609,638.172 743.026,637.316C742.155,636.224 740.776,633.206 739.122,628.843C732.275,610.776 719.514,568.718 711.636,552.53C700.199,529.019 685.284,507.1 668.349,486.759C653.132,468.481 636.121,451.655 618.854,435.74C616.91,433.948 614.997,432.134 613.058,430.354C612.655,430 612.615,429.386 612.969,428.983C613.323,428.58 613.937,428.541 614.34,428.895C616.361,430.595 618.392,432.29 620.383,434.043C638.089,449.636 654.892,466.865 670.222,485.197C687.332,505.658 702.405,527.718 713.982,551.385C716.024,555.561 718.395,561.445 720.905,568.196C722.397,572.208 723.939,576.528 725.491,580.977Z" style="fill:white;"/>
                </g>
                <g transform="matrix(4.16667,0,0,4.16667,-1111.42,-1416.51)">
                    <path d="M742.238,648.786C741.396,638.608 740.537,627.166 739.463,616.723C738.663,608.953 737.747,601.739 736.62,596.021C736.502,595.427 736.887,594.849 737.482,594.73C738.076,594.611 738.654,594.997 738.773,595.591C739.944,601.358 740.917,608.638 741.766,616.48C743.587,633.3 744.843,652.719 746.349,665.261C746.398,665.674 746.242,666.084 745.933,666.361C745.623,666.638 745.198,666.748 744.794,666.654C744.689,666.63 744.119,666.522 743.849,665.778C743.806,665.661 743.731,665.412 743.63,665.041C743.336,663.96 742.763,661.689 741.992,658.577C738.268,643.561 729.837,608.869 724.92,594.549C714.035,562.739 702.634,530.998 688.947,500.342C680.734,481.945 671.426,464.098 661.391,446.56C660.278,444.614 659.218,442.642 658.106,440.693C657.892,440.349 657.997,439.896 658.34,439.682C658.684,439.468 659.137,439.573 659.351,439.917C660.615,441.783 661.893,443.633 663.093,445.537C673.917,462.704 682.899,480.875 691.239,499.312C705.109,529.971 716.46,561.824 727.408,593.696C730.119,601.61 733.901,615.711 737.369,629.313C739.133,636.229 740.817,643.014 742.238,648.786Z" style="fill:white;"/>
                </g>
                <g transform="matrix(4.16667,0,0,4.16667,-1111.42,-1879.72)">
                    <path d="M694.323,646.341C692.891,641.735 691.281,637.325 689.494,633.207C683.39,619.068 676.892,605.277 669.792,591.79C662.709,578.335 655.028,565.181 646.401,552.355C646.22,552.09 646.288,551.729 646.552,551.549C646.817,551.368 647.178,551.436 647.358,551.7C656.197,564.448 664.137,577.513 671.387,590.939C678.654,604.396 685.226,618.211 691.451,632.354C693.556,637.16 695.436,642.357 697.055,647.805C698.54,652.798 699.805,658.002 700.851,663.299L700.886,663.414L701.056,663.984C701.137,664.193 701.225,664.433 701.25,664.551C701.37,665.127 701.098,665.494 700.953,665.64C700.681,665.912 700.285,666.02 699.911,665.924C699.538,665.828 699.244,665.542 699.137,665.172L698.982,664.647C698.897,664.425 698.804,664.179 698.802,664.168L698.726,663.785C695.154,652.02 688.822,638.919 681.42,625.814C676.101,616.395 670.211,606.986 664.402,598.056C657.999,588.212 651.695,578.95 646.225,570.986C646.017,570.689 646.09,570.279 646.387,570.071C646.684,569.863 647.095,569.936 647.302,570.233C652.909,578.118 659.42,587.257 665.943,597.042C671.876,605.94 677.819,615.37 683.203,624.801C687.34,632.049 691.137,639.304 694.323,646.341Z" style="fill:white;"/>
                </g>
                <g transform="matrix(4.16667,0,0,4.16667,-1111.42,-1345.74)">
                    <path d="M688.566,584.459C687.469,582.818 686.365,581.182 685.253,579.551C681.371,573.856 677.4,568.223 673.29,562.687C659.372,543.928 645.904,525.391 630.507,508.531C624.339,501.777 617.841,495.316 610.921,489.17C606.388,485.144 601.688,481.237 596.724,477.53C596.372,477.273 596.295,476.778 596.552,476.426C596.809,476.074 597.304,475.997 597.656,476.254C602.739,479.888 607.592,483.692 612.214,487.695C619.267,493.802 625.805,500.334 632.047,507.119C647.556,523.975 661.109,542.544 675.124,561.323C679.264,566.874 683.27,572.522 687.179,578.237C691.084,583.947 694.892,589.724 698.651,595.532C700.584,598.521 702.609,601.466 704.531,604.472C705.828,606.5 707.078,608.556 708.223,610.67C708.294,610.802 708.505,611.109 708.562,611.197C708.646,611.327 708.68,611.418 708.687,611.438C708.756,611.615 708.765,611.752 708.767,611.834C708.783,612.45 708.442,612.746 708.141,612.906C707.935,613.015 707.465,613.234 706.893,612.818C706.861,612.794 706.779,612.738 706.677,612.615C706.667,612.602 706.644,612.574 706.609,612.526C688.949,588.526 670.299,563.708 649.632,541.108C641.38,532.084 632.784,523.439 623.845,515.292C617.827,509.808 611.663,504.536 605.285,499.589C604.84,499.248 604.755,498.611 605.096,498.166C605.436,497.721 606.074,497.637 606.519,497.977C613.006,502.88 619.312,508.078 625.411,513.564C634.457,521.701 643.066,530.442 651.371,539.518C664.496,553.86 676.806,569.099 688.566,584.459Z" style="fill:white;"/>
                </g>
                <g transform="matrix(4.16667,0,0,4.16667,-1111.42,-1299.17)">
                    <path d="M666.963,569.832C659.519,559.819 649.925,546.498 648.567,545.074C638.876,534.898 628.599,524.241 617.475,514.835C613.046,511.089 608.466,507.566 603.767,504.301C600.595,502.097 597.382,499.991 594.07,498.087C593.67,497.867 593.524,497.363 593.744,496.963C593.964,496.562 594.468,496.416 594.868,496.636C598.301,498.44 601.671,500.405 604.942,502.565C609.78,505.76 614.419,509.338 618.929,513.105C630.174,522.498 640.514,533.22 650.292,543.427C651.866,545.073 664.446,562.527 672.068,572.575C674.217,575.408 675.963,577.643 676.941,578.736L677.665,579.408C678.079,579.793 678.176,580.412 677.899,580.905C677.623,581.399 677.045,581.639 676.5,581.487C676.402,581.46 676.224,581.372 675.994,581.203L675.994,581.204L675.989,581.199C675.78,581.048 675.53,580.829 675.256,580.53L675.206,580.474C665.688,571.687 653.171,561.236 640.305,551.258C634.062,546.416 627.718,541.71 621.63,537.312C614.799,532.377 608.284,527.838 602.441,524.131C601.95,523.826 601.8,523.18 602.105,522.69C602.41,522.2 603.056,522.049 603.546,522.354C609.489,525.983 616.165,530.379 623.081,535.286C629.231,539.65 635.565,544.425 641.832,549.289C650.659,556.14 659.318,563.218 666.963,569.832Z" style="fill:white;"/>
                </g>
                <g transform="matrix(4.16667,0,0,4.16667,-1111.42,-1279.1)">
                    <path d="M631.126,553.542C626.332,550.43 621.51,547.377 616.706,544.3C611.114,540.719 605.539,537.12 600.052,533.381C590.931,527.166 582.057,520.578 573.603,513.278C573.384,513.096 573.355,512.77 573.537,512.552C573.719,512.333 574.044,512.304 574.263,512.486C580.755,517.696 587.502,522.446 594.344,527.025C602.377,532.401 610.57,537.489 618.755,542.614C626.949,547.744 635.11,552.942 643.133,558.413C643.682,558.789 643.857,559.519 643.539,560.103C643.22,560.688 642.511,560.935 641.898,560.677C638.458,559.215 634.994,557.83 631.543,556.422C623.438,553.114 615.358,549.812 607.402,546.209C599.838,542.785 592.408,539.049 585.251,534.6C585.001,534.45 584.92,534.125 585.071,533.875C585.221,533.625 585.546,533.545 585.796,533.695C593.024,537.908 600.502,541.409 608.107,544.59C615.699,547.766 623.43,550.576 631.126,553.542Z" style="fill:white;"/>
                </g>
                <g transform="matrix(4.16667,0,0,4.16667,-1111.42,-438.799)">
                    <path d="M700.221,431.57C699.791,431.312 699.358,431.058 698.922,430.81C693.151,427.521 686.919,425.109 680.052,423.877C664.84,421.145 648.799,421.191 632.648,422.53C608.377,424.542 583.86,429.472 561.505,432.393C555.357,433.188 549.528,434.294 543.729,434.967C542.122,435.154 540.518,435.314 538.91,435.398C536.487,435.525 534.071,435.492 531.628,435.366C531.145,435.366 530.752,434.973 530.752,434.49C530.752,434.006 531.145,433.614 531.628,433.614C534.606,433.479 537.52,433.089 540.455,432.708C547.197,431.833 553.965,430.636 561.145,429.659C583.539,426.697 608.095,421.724 632.409,419.67C648.815,418.285 665.112,418.227 680.57,420.979C687.781,422.264 694.328,424.783 700.391,428.229C704.592,430.617 708.561,433.452 712.355,436.629C714.136,437.876 715.614,439.228 716.918,440.662L717.035,440.793L717.151,440.902C717.328,441.069 717.567,441.357 717.848,441.736C720.176,444.539 721.981,447.632 724.215,450.876C724.57,451.391 724.569,452.071 724.213,452.585C723.857,453.099 723.22,453.339 722.613,453.187C722.272,453.102 721.612,452.694 720.942,451.844C719.602,450.145 717.316,446.176 715.935,444.161C715.536,443.663 715.12,443.174 714.684,442.695L714.666,442.676C713.427,441.514 712.171,440.389 710.895,439.304C710.201,438.803 709.455,438.321 708.646,437.858C702.279,434.216 693.027,432.93 682.182,432.909C667.43,432.88 649.789,435.291 632.284,437.665C614.28,440.106 596.42,442.603 582.002,442.549C578.803,442.537 575.76,442.49 572.95,442.079C572.413,442.001 571.886,441.928 571.382,441.766C571.144,441.689 570.956,441.581 570.73,441.479C570.32,441.431 570.027,441.059 570.076,440.65C570.124,440.24 570.496,439.947 570.905,439.996C571.143,439.95 571.344,439.883 571.587,439.859C572.098,439.809 572.613,439.832 573.14,439.845C575.91,439.912 578.862,440.047 581.982,439.987C596.298,439.714 613.996,437.134 631.864,434.622C649.505,432.142 667.312,429.818 682.189,429.856C688.866,429.873 694.964,430.384 700.221,431.57Z" style="fill:white;"/>
                </g>
                <g transform="matrix(4.16667,0,0,4.16667,-1111.42,-728.624)">
                    <path d="M642.283,475.244C628.532,472.557 615.192,470.006 613.07,469.772C604.887,468.847 586.425,465.536 573.427,463.514C569.487,462.902 566.054,462.406 563.573,462.138C562.794,462.057 562.228,461.359 562.309,460.58C562.391,459.801 563.089,459.235 563.868,459.317C566.385,459.571 569.868,460.046 573.864,460.642C586.832,462.577 605.252,465.786 613.413,466.662C617.096,467.068 654.391,474.401 669.398,477.407C672.076,477.943 674.044,478.341 674.984,478.538C675.281,478.6 675.481,478.643 675.577,478.665C677.141,479.031 676.763,480.727 676.742,480.78C676.468,481.481 675.735,481.889 674.995,481.752C665.317,479.956 651.221,478.816 635.609,478.017C610.849,476.75 582.291,476.402 561.398,475.79C559.869,475.745 558.38,475.708 556.938,475.643C553.121,475.472 549.623,475.294 546.534,475C545.843,474.934 545.176,474.864 544.531,474.756C544.069,474.679 543.635,474.592 543.203,474.476C543.138,474.459 543.073,474.456 543.019,474.418C542.894,474.327 542.937,474.305 542.847,474.181C542.539,474.163 542.303,473.899 542.321,473.591C542.339,473.283 542.603,473.047 542.911,473.065C543.046,472.956 543.049,472.888 543.211,472.821C543.565,472.675 543.965,472.728 544.362,472.703C545.421,472.637 546.531,472.619 547.702,472.615C551.019,472.605 554.756,472.709 558.825,472.78C576.399,473.087 600.124,473.495 622.494,474.317C629.285,474.567 635.952,474.869 642.283,475.244Z" style="fill:white;"/>
                </g>
                <g transform="matrix(4.16667,0,0,4.16667,-1111.42,-335.374)">
                    <path d="M678.721,414.357C673.66,414.06 667.889,413.989 661.418,414.303C654.636,414.628 647.705,415.647 639.706,417.124C626.852,419.498 611.259,423.051 589.167,426.851C588.775,426.92 588.4,426.658 588.33,426.266C588.261,425.874 588.523,425.499 588.915,425.43C610.959,421.394 626.508,417.669 639.333,415.161C647.421,413.58 654.433,412.483 661.3,412.084C672.29,411.451 681.302,411.925 688.272,412.771C696.349,413.752 701.703,415.23 704.241,416.053C705.048,416.315 705.579,416.515 705.832,416.615C706.337,416.814 706.519,417.065 706.528,417.077C706.854,417.484 706.903,418.048 706.65,418.505C706.398,418.962 705.895,419.222 705.376,419.163C689.011,417.319 680.305,416.706 673.297,417.025C666.485,417.336 661.282,418.532 652.182,420.327C636.231,423.42 621.035,426.255 606.338,428.668C590.457,431.275 575.168,433.405 560.208,435.251C559.902,435.293 559.62,435.078 559.579,434.772C559.538,434.467 559.752,434.185 560.058,434.143C574.952,431.949 590.145,429.341 605.963,426.488C620.601,423.848 635.775,421.012 651.681,417.798C660.945,415.957 666.242,414.739 673.179,414.422C674.897,414.343 676.716,414.32 678.721,414.357Z" style="fill:white;"/>
                </g>
                <g transform="matrix(4.16667,0,0,4.16667,-1111.42,908.588)">
                    <path d="M671.465,407.396C671.211,407.773 670.752,407.987 670.275,407.908C670.291,407.91 669.491,406.038 669.491,406.038L669.937,405.403C670.609,404.447 672.013,402.451 673.932,399.698C677.724,394.262 683.513,385.864 689.702,376.731C697.871,364.678 706.729,351.337 712.384,341.693C719.469,329.552 724.35,319.093 728.046,308.939C732.215,297.487 734.887,286.433 737.693,273.865C742.545,252.132 746.132,231.892 747.18,207.956C747.546,199.597 747.589,190.788 747.304,181.303C746.941,169.24 746.051,156.084 744.419,141.382C744.355,140.832 744.749,140.334 745.299,140.27C745.849,140.206 746.347,140.6 746.411,141.15C748.202,155.903 749.298,169.107 749.72,181.225C750.052,190.774 749.966,199.648 749.574,208.064C748.45,232.14 744.696,252.482 739.707,274.32C736.82,286.959 734.019,298.056 729.815,309.584C726.078,319.831 721.24,330.426 714.136,342.711C705.707,357.32 690.146,380.417 680.31,394.698C676.615,400.064 673.722,404.181 672.343,406.147L671.465,407.397L671.465,407.396Z" style="fill:white;"/>
                </g>
                <g transform="matrix(4.16667,0,0,4.16667,-1111.42,1187.61)">
                    <path d="M652.757,373.914L652.761,373.91C652.819,373.851 652.938,373.725 653.114,373.536C653.728,372.876 654.995,371.489 656.777,369.451C663.246,362.054 676.442,346.121 689.849,325.381C696.782,314.657 703.785,302.655 709.913,289.862C725.733,257.149 735.223,237.489 741.079,218.731C747.649,197.684 749.658,177.809 751.29,142.017C751.529,136.589 751.757,128.044 751.721,119.8C751.697,114.438 751.562,109.204 751.244,105.043C751.195,104.383 751.691,103.808 752.35,103.759C753.01,103.709 753.585,104.205 753.635,104.865C753.941,109.075 754.059,114.37 754.063,119.793C754.07,128.08 753.809,136.666 753.55,142.12C751.889,178.174 749.707,198.151 743.206,219.388C737.428,238.265 728.248,258.162 712.736,291.207C703.127,311.454 691.391,329.782 681.005,344.179C670.955,358.112 662.175,368.365 657.897,373.174C656.664,374.559 655.801,375.495 655.383,375.94C653.9,377.518 652.247,375.136 652.247,375.106C652.247,374.637 652.443,374.214 652.757,373.914Z" style="fill:white;"/>
                </g>
                <g transform="matrix(4.16667,0,0,4.16667,-1111.42,2090.75)">
                    <path d="M646.884,156.821C646.57,157.246 646.043,157.494 645.481,157.427C644.897,157.346 644.555,157.048 644.352,156.7C644.186,156.415 644.046,156.039 644.172,155.547C644.205,155.421 644.304,155.06 644.715,154.662C644.981,154.405 645.589,153.894 646.455,153.174C649.657,150.51 656.565,144.776 662.072,138.388C667.66,131.84 672.581,125.527 676.735,120.033C680.526,115.02 683.673,110.69 685.908,107.338C686.083,107.062 686.449,106.98 686.726,107.155C687.002,107.33 687.084,107.697 686.909,107.973C684.39,112.143 680.707,117.863 675.984,124.364C672.472,129.198 668.36,134.44 663.865,139.89C658.438,146.56 651.558,152.598 648.382,155.416C647.647,156.068 647.132,156.979 646.884,156.821ZM646.748,154.854C646.543,154.63 646.26,154.45 645.843,154.407C646.201,154.45 646.515,154.614 646.748,154.854Z" style="fill:white;"/>
                </g>
            </g>
        </g>
    </g>
    <defs>
        <linearGradient id="_Linear1" x1="0" y1="0" x2="1" y2="0" gradientUnits="userSpaceOnUse" gradientTransform="matrix(1,2.77556e-17,2.77556e-17,-1,0,-0.13979)"><stop offset="0" style="stop-color:rgb(0,135,152);stop-opacity:1"/><stop offset="0.42" style="stop-color:rgb(5,222,184);stop-opacity:1"/><stop offset="1" style="stop-color:rgb(15,220,29);stop-opacity:1"/></linearGradient>
    </defs>
</svg>
